# MagicaVoxel @ Ephtracy

# group
g room_1111

# material
mtllib room_1111.mtl
usemtl palette

# normals
vn -1 0 0
vn 1 0 0
vn 0 0 1
vn 0 0 -1
vn 0 -1 0
vn 0 1 0

# texcoords
vt 0.970703 0.5
vt 0.974609 0.5
vt 0.978516 0.5

# verts
v -10 0 10
v -10 0 -10
v -10 3 10
v -10 3 -10
v 10 0 10
v 10 0 -10
v 10 3 10
v 10 3 -10
v -10 0 10
v -10 3 10
v 10 0 10
v 10 3 10
v -10 0 -10
v -10 3 -10
v 10 0 -10
v 10 3 -10
v -10 0 10
v 10 0 10
v -6 0 6
v -5 0 6
v 5 0 6
v 6 0 6
v -6 0 5
v -5 0 5
v 5 0 5
v 6 0 5
v -6 0 -5
v -5 0 -5
v 5 0 -5
v 6 0 -5
v -6 0 -6
v -5 0 -6
v 5 0 -6
v 6 0 -6
v -10 0 -10
v 10 0 -10
v -10 3 10
v 10 3 10
v -2 3 7
v -1 3 7
v 1 3 7
v 2 3 7
v -2 3 6
v -1 3 6
v 1 3 6
v 2 3 6
v -7 3 4
v -6 3 4
v -4 3 4
v -3 3 4
v 3 3 4
v 4 3 4
v 6 3 4
v 7 3 4
v -7 3 3
v -6 3 3
v -4 3 3
v -3 3 3
v 3 3 3
v 4 3 3
v 6 3 3
v 7 3 3
v -7 3 -3
v -6 3 -3
v -4 3 -3
v -3 3 -3
v 3 3 -3
v 4 3 -3
v 6 3 -3
v 7 3 -3
v -7 3 -4
v -6 3 -4
v -4 3 -4
v -3 3 -4
v 3 3 -4
v 4 3 -4
v 6 3 -4
v 7 3 -4
v -2 3 -6
v -1 3 -6
v 1 3 -6
v 2 3 -6
v -2 3 -7
v -1 3 -7
v 1 3 -7
v 2 3 -7
v -10 3 -10
v 10 3 -10

# faces
f 3/1/1 2/1/1 1/1/1
f 4/1/1 2/1/1 3/1/1
f 5/1/2 6/1/2 7/1/2
f 7/1/2 6/1/2 8/1/2
f 11/1/3 10/1/3 9/1/3
f 12/1/3 10/1/3 11/1/3
f 13/1/4 14/1/4 15/1/4
f 15/1/4 14/1/4 16/1/4
f 19/1/5 18/1/5 17/1/5
f 20/1/5 18/1/5 19/1/5
f 21/1/5 18/1/5 20/1/5
f 22/1/5 18/1/5 21/1/5
f 23/1/5 19/1/5 17/1/5
f 23/2/5 20/2/5 19/2/5
f 24/1/5 21/1/5 20/1/5
f 24/2/5 20/2/5 23/2/5
f 25/2/5 22/2/5 21/2/5
f 25/1/5 21/1/5 24/1/5
f 26/1/5 18/1/5 22/1/5
f 26/2/5 22/2/5 25/2/5
f 27/1/5 25/1/5 24/1/5
f 27/1/5 24/1/5 23/1/5
f 27/1/5 26/1/5 25/1/5
f 27/1/5 23/1/5 17/1/5
f 28/1/5 26/1/5 27/1/5
f 29/1/5 26/1/5 28/1/5
f 30/1/5 18/1/5 26/1/5
f 30/1/5 26/1/5 29/1/5
f 31/1/5 27/1/5 17/1/5
f 31/2/5 28/2/5 27/2/5
f 32/1/5 29/1/5 28/1/5
f 32/2/5 28/2/5 31/2/5
f 33/2/5 30/2/5 29/2/5
f 33/1/5 29/1/5 32/1/5
f 34/1/5 18/1/5 30/1/5
f 34/2/5 30/2/5 33/2/5
f 35/1/5 31/1/5 17/1/5
f 35/1/5 33/1/5 32/1/5
f 35/1/5 34/1/5 33/1/5
f 35/1/5 32/1/5 31/1/5
f 36/1/5 18/1/5 34/1/5
f 36/1/5 34/1/5 35/1/5
f 37/1/6 38/1/6 39/1/6
f 39/1/6 38/1/6 40/1/6
f 40/1/6 38/1/6 41/1/6
f 41/1/6 38/1/6 42/1/6
f 37/1/6 39/1/6 43/1/6
f 39/2/6 40/2/6 43/2/6
f 40/1/6 41/1/6 44/1/6
f 43/2/6 40/2/6 44/2/6
f 41/2/6 42/2/6 45/2/6
f 44/1/6 41/1/6 45/1/6
f 42/1/6 38/1/6 46/1/6
f 45/2/6 42/2/6 46/2/6
f 44/1/6 45/1/6 47/1/6
f 43/1/6 44/1/6 47/1/6
f 45/1/6 46/1/6 47/1/6
f 37/1/6 43/1/6 47/1/6
f 47/1/6 46/1/6 48/1/6
f 48/1/6 46/1/6 49/1/6
f 49/1/6 46/1/6 50/1/6
f 46/1/6 38/1/6 51/1/6
f 50/1/6 46/1/6 51/1/6
f 51/1/6 38/1/6 52/1/6
f 52/1/6 38/1/6 53/1/6
f 53/1/6 38/1/6 54/1/6
f 37/1/6 47/1/6 55/1/6
f 47/2/6 48/2/6 55/2/6
f 48/1/6 49/1/6 56/1/6
f 55/2/6 48/2/6 56/2/6
f 49/3/6 50/3/6 57/3/6
f 56/1/6 49/1/6 57/1/6
f 50/1/6 51/1/6 58/1/6
f 57/3/6 50/3/6 58/3/6
f 51/3/6 52/3/6 59/3/6
f 58/1/6 51/1/6 59/1/6
f 52/1/6 53/1/6 60/1/6
f 59/3/6 52/3/6 60/3/6
f 53/2/6 54/2/6 61/2/6
f 60/1/6 53/1/6 61/1/6
f 54/1/6 38/1/6 62/1/6
f 61/2/6 54/2/6 62/2/6
f 55/1/6 56/1/6 63/1/6
f 60/1/6 61/1/6 63/1/6
f 61/1/6 62/1/6 63/1/6
f 58/1/6 59/1/6 63/1/6
f 57/1/6 58/1/6 63/1/6
f 56/1/6 57/1/6 63/1/6
f 37/1/6 55/1/6 63/1/6
f 59/1/6 60/1/6 63/1/6
f 63/1/6 62/1/6 64/1/6
f 64/1/6 62/1/6 65/1/6
f 65/1/6 62/1/6 66/1/6
f 66/1/6 62/1/6 67/1/6
f 67/1/6 62/1/6 68/1/6
f 68/1/6 62/1/6 69/1/6
f 62/1/6 38/1/6 70/1/6
f 69/1/6 62/1/6 70/1/6
f 37/1/6 63/1/6 71/1/6
f 63/2/6 64/2/6 71/2/6
f 64/1/6 65/1/6 72/1/6
f 71/2/6 64/2/6 72/2/6
f 65/3/6 66/3/6 73/3/6
f 72/1/6 65/1/6 73/1/6
f 66/1/6 67/1/6 74/1/6
f 73/3/6 66/3/6 74/3/6
f 67/3/6 68/3/6 75/3/6
f 74/1/6 67/1/6 75/1/6
f 68/1/6 69/1/6 76/1/6
f 75/3/6 68/3/6 76/3/6
f 69/2/6 70/2/6 77/2/6
f 76/1/6 69/1/6 77/1/6
f 70/1/6 38/1/6 78/1/6
f 77/2/6 70/2/6 78/2/6
f 74/1/6 75/1/6 79/1/6
f 76/1/6 77/1/6 79/1/6
f 77/1/6 78/1/6 79/1/6
f 73/1/6 74/1/6 79/1/6
f 72/1/6 73/1/6 79/1/6
f 71/1/6 72/1/6 79/1/6
f 75/1/6 76/1/6 79/1/6
f 79/1/6 78/1/6 80/1/6
f 80/1/6 78/1/6 81/1/6
f 81/1/6 78/1/6 82/1/6
f 71/1/6 79/1/6 83/1/6
f 79/2/6 80/2/6 83/2/6
f 80/1/6 81/1/6 84/1/6
f 83/2/6 80/2/6 84/2/6
f 81/2/6 82/2/6 85/2/6
f 84/1/6 81/1/6 85/1/6
f 82/1/6 78/1/6 86/1/6
f 85/2/6 82/2/6 86/2/6
f 37/1/6 71/1/6 87/1/6
f 84/1/6 85/1/6 87/1/6
f 85/1/6 86/1/6 87/1/6
f 71/1/6 83/1/6 87/1/6
f 83/1/6 84/1/6 87/1/6
f 78/1/6 38/1/6 88/1/6
f 87/1/6 86/1/6 88/1/6
f 86/1/6 78/1/6 88/1/6
