# MagicaVoxel @ Ephtracy

# group
g room_door

# material
mtllib room_door.mtl
usemtl palette

# normals
vn -1 0 0
vn 1 0 0
vn 0 0 1
vn 0 0 -1
vn 0 -1 0
vn 0 1 0

# texcoords
vt 0.970703 0.5
vt 0.974609 0.5
vt 0.978516 0.5
vt 0.982422 0.5
vt 0.986328 0.5
vt 0.990234 0.5

# verts
v -10 3 10
v -10 3 8
v -10 3 7
v -10 3 5
v -10 3 3
v -10 3 -3
v -10 3 -5
v -10 3 -10
v -10 4 10
v -10 4 9
v -10 4 8
v -10 4 7
v -10 4 -5
v -10 4 -6
v -10 5 10
v -10 5 9
v -10 5 1
v -10 5 -1
v -10 5 -5
v -10 5 -6
v -10 6 8
v -10 6 5
v -10 6 2
v -10 6 1
v -10 6 -1
v -10 6 -2
v -10 6 -5
v -10 6 -8
v -10 7 8
v -10 7 5
v -10 7 -5
v -10 7 -6
v -10 7 -7
v -10 7 -8
v -10 8 2
v -10 8 1
v -10 8 -1
v -10 8 -2
v -10 8 -6
v -10 8 -7
v -10 9 10
v -10 9 5
v -10 9 1
v -10 9 -1
v -10 9 -5
v -10 9 -10
v -10 10 10
v -10 10 5
v -10 10 3
v -10 10 -3
v -10 10 -5
v -10 10 -10
v -9 3 3
v -9 3 2
v -9 3 -2
v -9 3 -3
v -9 4 2
v -9 4 1
v -9 4 -1
v -9 4 -2
v -9 5 2
v -9 5 1
v -9 5 -1
v -9 5 -2
v -9 6 2
v -9 6 1
v -9 6 -1
v -9 6 -2
v -9 8 2
v -9 8 1
v -9 8 -1
v -9 8 -2
v -9 9 3
v -9 9 2
v -9 9 1
v -9 9 -1
v -9 9 -2
v -9 9 -3
v -9 10 3
v -9 10 1
v -9 10 -1
v -9 10 -3
v -9 11 1
v -9 11 -1
v -9 3 10
v -9 3 8
v -9 3 7
v -9 3 5
v -9 3 -5
v -9 3 -10
v -9 4 10
v -9 4 9
v -9 4 8
v -9 4 7
v -9 4 -5
v -9 4 -6
v -9 5 10
v -9 5 9
v -9 5 -5
v -9 5 -6
v -9 6 8
v -9 6 5
v -9 6 -5
v -9 6 -8
v -9 7 8
v -9 7 5
v -9 7 -5
v -9 7 -6
v -9 7 -7
v -9 7 -8
v -9 8 -6
v -9 8 -7
v -9 9 10
v -9 9 5
v -9 9 -5
v -9 9 -10
v -9 10 10
v -9 10 5
v -9 10 -5
v -9 10 -10
v -8 3 5
v -8 3 3
v -8 3 2
v -8 3 1
v -8 3 -1
v -8 3 -2
v -8 3 -3
v -8 3 -5
v -8 4 2
v -8 4 1
v -8 4 -1
v -8 4 -2
v -8 5 4
v -8 5 3
v -8 5 2
v -8 5 1
v -8 5 -1
v -8 5 -2
v -8 5 -3
v -8 5 -4
v -8 6 3
v -8 6 2
v -8 6 1
v -8 6 -1
v -8 6 -2
v -8 6 -3
v -8 7 3
v -8 7 1
v -8 7 -1
v -8 7 -3
v -8 8 4
v -8 8 3
v -8 8 2
v -8 8 1
v -8 8 -1
v -8 8 -2
v -8 8 -3
v -8 8 -4
v -8 9 5
v -8 9 3
v -8 9 2
v -8 9 1
v -8 9 -1
v -8 9 -2
v -8 9 -3
v -8 9 -5
v -8 10 5
v -8 10 1
v -8 10 -1
v -8 10 -5
v -8 11 1
v -8 11 -1
v -7 3 1
v -7 3 -1
v -7 5 4
v -7 5 3
v -7 5 -3
v -7 5 -4
v -7 6 3
v -7 6 1
v -7 6 -1
v -7 6 -3
v -7 7 3
v -7 7 1
v -7 7 -1
v -7 7 -3
v -7 8 4
v -7 8 3
v -7 8 -3
v -7 8 -4
v -7 10 1
v -7 10 -1
v -10 3 10
v -10 4 10
v -10 5 10
v -10 9 10
v -10 10 10
v -9 3 10
v -9 4 10
v -9 5 10
v -9 9 10
v -9 10 10
v -10 6 5
v -10 7 5
v -9 3 5
v -9 6 5
v -9 7 5
v -9 9 5
v -9 10 5
v -8 3 5
v -8 9 5
v -8 10 5
v -8 5 4
v -8 8 4
v -7 5 4
v -7 8 4
v -10 6 2
v -10 8 2
v -9 6 2
v -9 8 2
v -10 5 1
v -10 6 1
v -10 8 1
v -10 9 1
v -9 5 1
v -9 6 1
v -9 8 1
v -9 9 1
v -9 10 1
v -9 11 1
v -8 3 1
v -8 4 1
v -8 5 1
v -8 6 1
v -8 7 1
v -8 8 1
v -8 9 1
v -8 10 1
v -8 11 1
v -7 3 1
v -7 6 1
v -7 7 1
v -7 10 1
v -10 3 -3
v -10 10 -3
v -9 3 -3
v -9 9 -3
v -9 10 -3
v -8 5 -3
v -8 6 -3
v -8 7 -3
v -8 8 -3
v -7 5 -3
v -7 6 -3
v -7 7 -3
v -7 8 -3
v -10 6 -8
v -10 7 -8
v -9 6 -8
v -9 7 -8
v -10 6 8
v -10 7 8
v -9 6 8
v -9 7 8
v -10 3 3
v -10 10 3
v -9 3 3
v -9 9 3
v -9 10 3
v -8 5 3
v -8 6 3
v -8 7 3
v -8 8 3
v -7 5 3
v -7 6 3
v -7 7 3
v -7 8 3
v -10 5 -1
v -10 6 -1
v -10 8 -1
v -10 9 -1
v -9 5 -1
v -9 6 -1
v -9 8 -1
v -9 9 -1
v -9 10 -1
v -9 11 -1
v -8 3 -1
v -8 4 -1
v -8 5 -1
v -8 6 -1
v -8 7 -1
v -8 8 -1
v -8 9 -1
v -8 10 -1
v -8 11 -1
v -7 3 -1
v -7 6 -1
v -7 7 -1
v -7 10 -1
v -10 6 -2
v -10 8 -2
v -9 6 -2
v -9 8 -2
v -8 5 -4
v -8 8 -4
v -7 5 -4
v -7 8 -4
v -10 6 -5
v -10 7 -5
v -9 3 -5
v -9 4 -5
v -9 5 -5
v -9 6 -5
v -9 7 -5
v -9 9 -5
v -9 10 -5
v -8 3 -5
v -8 9 -5
v -8 10 -5
v -10 3 -10
v -10 9 -10
v -10 10 -10
v -9 3 -10
v -9 9 -10
v -9 10 -10
v -10 3 10
v -9 3 10
v -10 3 8
v -9 3 8
v -10 3 7
v -9 3 7
v -10 3 5
v -9 3 5
v -8 3 5
v -10 3 3
v -9 3 3
v -8 3 3
v -9 3 2
v -8 3 2
v -8 3 1
v -7 3 1
v -8 3 -1
v -7 3 -1
v -9 3 -2
v -8 3 -2
v -10 3 -3
v -9 3 -3
v -8 3 -3
v -10 3 -5
v -9 3 -5
v -8 3 -5
v -10 3 -10
v -9 3 -10
v -8 5 4
v -7 5 4
v -8 5 3
v -7 5 3
v -10 5 1
v -9 5 1
v -10 5 -1
v -9 5 -1
v -8 5 -3
v -7 5 -3
v -8 5 -4
v -7 5 -4
v -8 6 3
v -7 6 3
v -10 6 2
v -9 6 2
v -8 6 2
v -10 6 1
v -9 6 1
v -8 6 1
v -7 6 1
v -10 6 -1
v -9 6 -1
v -8 6 -1
v -7 6 -1
v -10 6 -2
v -9 6 -2
v -8 6 -2
v -8 6 -3
v -7 6 -3
v -10 7 8
v -9 7 8
v -10 7 5
v -9 7 5
v -10 7 -5
v -9 7 -5
v -10 7 -6
v -9 7 -6
v -10 7 -7
v -9 7 -7
v -10 7 -8
v -9 7 -8
v -10 6 8
v -9 6 8
v -10 6 5
v -9 6 5
v -10 6 -5
v -9 6 -5
v -10 6 -8
v -9 6 -8
v -8 7 3
v -7 7 3
v -8 7 1
v -7 7 1
v -8 7 -1
v -7 7 -1
v -8 7 -3
v -7 7 -3
v -8 8 4
v -7 8 4
v -8 8 3
v -7 8 3
v -10 8 2
v -9 8 2
v -10 8 1
v -9 8 1
v -10 8 -1
v -9 8 -1
v -10 8 -2
v -9 8 -2
v -8 8 -3
v -7 8 -3
v -8 8 -4
v -7 8 -4
v -10 9 1
v -9 9 1
v -10 9 -1
v -9 9 -1
v -10 10 10
v -9 10 10
v -10 10 5
v -9 10 5
v -8 10 5
v -10 10 3
v -9 10 3
v -9 10 1
v -8 10 1
v -7 10 1
v -9 10 -1
v -8 10 -1
v -7 10 -1
v -10 10 -3
v -9 10 -3
v -10 10 -5
v -9 10 -5
v -8 10 -5
v -10 10 -10
v -9 10 -10
v -9 11 1
v -8 11 1
v -9 11 -1
v -8 11 -1

# faces
f 9/1/1 2/1/1 1/1/1
f 10/1/1 2/1/1 9/1/1
f 11/2/1 3/2/1 2/2/1
f 11/1/1 2/1/1 10/1/1
f 12/1/1 4/1/1 3/1/1
f 12/2/1 3/2/1 11/2/1
f 13/1/1 8/1/1 7/1/1
f 13/5/1 7/5/1 6/5/1
f 14/1/1 8/1/1 13/1/1
f 15/2/1 10/2/1 9/2/1
f 16/1/1 11/1/1 10/1/1
f 16/2/1 10/2/1 15/2/1
f 16/1/1 12/1/1 11/1/1
f 19/2/1 14/2/1 13/2/1
f 19/5/1 13/5/1 6/5/1
f 20/1/1 8/1/1 14/1/1
f 20/2/1 14/2/1 19/2/1
f 21/1/1 12/1/1 16/1/1
f 21/1/1 16/1/1 15/1/1
f 22/1/1 4/1/1 12/1/1
f 22/1/1 12/1/1 21/1/1
f 22/5/1 5/5/1 4/5/1
f 24/4/1 18/4/1 17/4/1
f 25/4/1 18/4/1 24/4/1
f 27/5/1 19/5/1 6/5/1
f 27/1/1 20/1/1 19/1/1
f 28/1/1 8/1/1 20/1/1
f 28/1/1 20/1/1 27/1/1
f 29/1/1 21/1/1 15/1/1
f 30/5/1 5/5/1 22/5/1
f 31/5/1 27/5/1 6/5/1
f 34/1/1 8/1/1 28/1/1
f 35/4/1 24/4/1 23/4/1
f 36/6/1 25/6/1 24/6/1
f 36/4/1 24/4/1 35/4/1
f 37/4/1 26/4/1 25/4/1
f 37/6/1 25/6/1 36/6/1
f 38/4/1 26/4/1 37/4/1
f 39/2/1 33/2/1 32/2/1
f 39/1/1 32/1/1 31/1/1
f 40/1/1 34/1/1 33/1/1
f 40/2/1 33/2/1 39/2/1
f 41/1/1 29/1/1 15/1/1
f 41/1/1 30/1/1 29/1/1
f 42/5/1 5/5/1 30/5/1
f 42/1/1 30/1/1 41/1/1
f 43/4/1 37/4/1 36/4/1
f 44/4/1 37/4/1 43/4/1
f 45/1/1 40/1/1 39/1/1
f 45/1/1 39/1/1 31/1/1
f 45/5/1 31/5/1 6/5/1
f 46/1/1 34/1/1 40/1/1
f 46/1/1 40/1/1 45/1/1
f 46/1/1 8/1/1 34/1/1
f 47/3/1 42/3/1 41/3/1
f 48/5/1 5/5/1 42/5/1
f 48/3/1 42/3/1 47/3/1
f 49/5/1 5/5/1 48/5/1
f 50/5/1 45/5/1 6/5/1
f 51/3/1 46/3/1 45/3/1
f 51/5/1 45/5/1 50/5/1
f 52/3/1 46/3/1 51/3/1
f 57/4/1 54/4/1 53/4/1
f 57/6/1 55/6/1 54/6/1
f 58/6/1 55/6/1 57/6/1
f 59/6/1 55/6/1 58/6/1
f 60/4/1 56/4/1 55/4/1
f 60/6/1 55/6/1 59/6/1
f 61/4/1 57/4/1 53/4/1
f 61/4/1 58/4/1 57/4/1
f 62/6/1 59/6/1 58/6/1
f 62/4/1 58/4/1 61/4/1
f 63/4/1 60/4/1 59/4/1
f 63/6/1 59/6/1 62/6/1
f 64/4/1 56/4/1 60/4/1
f 64/4/1 60/4/1 63/4/1
f 65/4/1 61/4/1 53/4/1
f 65/5/1 62/5/1 61/5/1
f 66/5/1 62/5/1 65/5/1
f 67/5/1 64/5/1 63/5/1
f 68/4/1 56/4/1 64/4/1
f 68/5/1 64/5/1 67/5/1
f 69/4/1 65/4/1 53/4/1
f 72/4/1 56/4/1 68/4/1
f 73/4/1 69/4/1 53/4/1
f 74/5/1 70/5/1 69/5/1
f 74/4/1 69/4/1 73/4/1
f 75/5/1 70/5/1 74/5/1
f 76/5/1 72/5/1 71/5/1
f 77/4/1 56/4/1 72/4/1
f 77/5/1 72/5/1 76/5/1
f 78/4/1 56/4/1 77/4/1
f 79/6/1 75/6/1 74/6/1
f 79/6/1 74/6/1 73/6/1
f 80/4/1 76/4/1 75/4/1
f 80/6/1 75/6/1 79/6/1
f 81/6/1 78/6/1 77/6/1
f 81/4/1 76/4/1 80/4/1
f 81/6/1 77/6/1 76/6/1
f 82/6/1 78/6/1 81/6/1
f 83/6/1 81/6/1 80/6/1
f 84/6/1 81/6/1 83/6/1
f 85/1/2 86/1/2 91/1/2
f 91/1/2 86/1/2 92/1/2
f 86/2/2 87/2/2 93/2/2
f 92/1/2 86/1/2 93/1/2
f 87/1/2 88/1/2 94/1/2
f 93/2/2 87/2/2 94/2/2
f 89/1/2 90/1/2 95/1/2
f 95/1/2 90/1/2 96/1/2
f 91/2/2 92/2/2 97/2/2
f 92/1/2 93/1/2 98/1/2
f 97/2/2 92/2/2 98/2/2
f 93/1/2 94/1/2 98/1/2
f 95/2/2 96/2/2 99/2/2
f 96/1/2 90/1/2 100/1/2
f 99/2/2 96/2/2 100/2/2
f 98/1/2 94/1/2 101/1/2
f 97/1/2 98/1/2 101/1/2
f 94/1/2 88/1/2 102/1/2
f 101/1/2 94/1/2 102/1/2
f 99/1/2 100/1/2 103/1/2
f 100/1/2 90/1/2 104/1/2
f 103/1/2 100/1/2 104/1/2
f 97/1/2 101/1/2 105/1/2
f 104/1/2 90/1/2 110/1/2
f 108/2/2 109/2/2 111/2/2
f 107/1/2 108/1/2 111/1/2
f 109/1/2 110/1/2 112/1/2
f 111/2/2 109/2/2 112/2/2
f 97/1/2 105/1/2 113/1/2
f 105/1/2 106/1/2 113/1/2
f 113/1/2 106/1/2 114/1/2
f 107/1/2 111/1/2 115/1/2
f 111/1/2 112/1/2 115/1/2
f 112/1/2 110/1/2 116/1/2
f 115/1/2 112/1/2 116/1/2
f 110/1/2 90/1/2 116/1/2
f 113/3/2 114/3/2 117/3/2
f 117/3/2 114/3/2 118/3/2
f 115/3/2 116/3/2 119/3/2
f 119/3/2 116/3/2 120/3/2
f 122/4/2 123/4/2 129/4/2
f 123/6/2 124/6/2 129/6/2
f 129/6/2 124/6/2 130/6/2
f 125/6/2 126/6/2 131/6/2
f 126/4/2 127/4/2 132/4/2
f 131/6/2 126/6/2 132/6/2
f 121/5/2 122/5/2 133/5/2
f 129/4/2 130/4/2 134/4/2
f 133/5/2 122/5/2 134/5/2
f 122/4/2 129/4/2 134/4/2
f 134/4/2 130/4/2 135/4/2
f 135/4/2 130/4/2 136/4/2
f 131/4/2 132/4/2 137/4/2
f 132/4/2 127/4/2 138/4/2
f 137/4/2 132/4/2 138/4/2
f 127/5/2 128/5/2 139/5/2
f 138/4/2 127/4/2 139/4/2
f 139/5/2 128/5/2 140/5/2
f 134/4/2 135/4/2 141/4/2
f 135/5/2 136/5/2 142/5/2
f 141/4/2 135/4/2 142/4/2
f 142/5/2 136/5/2 143/5/2
f 137/5/2 138/5/2 144/5/2
f 138/4/2 139/4/2 145/4/2
f 144/5/2 138/5/2 145/5/2
f 145/4/2 139/4/2 146/4/2
f 121/5/2 133/5/2 151/5/2
f 147/4/2 148/4/2 152/4/2
f 152/4/2 148/4/2 153/4/2
f 153/4/2 148/4/2 154/4/2
f 149/4/2 150/4/2 155/4/2
f 155/4/2 150/4/2 156/4/2
f 156/4/2 150/4/2 157/4/2
f 140/5/2 128/5/2 158/5/2
f 121/5/2 151/5/2 159/5/2
f 151/5/2 152/5/2 159/5/2
f 152/4/2 153/4/2 160/4/2
f 159/5/2 152/5/2 160/5/2
f 153/5/2 154/5/2 161/5/2
f 160/4/2 153/4/2 161/4/2
f 161/5/2 154/5/2 162/5/2
f 155/5/2 156/5/2 163/5/2
f 156/4/2 157/4/2 164/4/2
f 163/5/2 156/5/2 164/5/2
f 157/5/2 158/5/2 165/5/2
f 164/4/2 157/4/2 165/4/2
f 158/5/2 128/5/2 166/5/2
f 165/5/2 158/5/2 166/5/2
f 159/6/2 160/6/2 167/6/2
f 161/6/2 162/6/2 167/6/2
f 160/6/2 161/6/2 167/6/2
f 167/6/2 162/6/2 168/6/2
f 165/6/2 166/6/2 169/6/2
f 163/6/2 164/6/2 169/6/2
f 164/6/2 165/6/2 169/6/2
f 169/6/2 166/6/2 170/6/2
f 168/6/2 169/6/2 171/6/2
f 171/6/2 169/6/2 172/6/2
f 175/6/2 176/6/2 179/6/2
f 173/6/2 174/6/2 180/6/2
f 180/6/2 174/6/2 181/6/2
f 177/6/2 178/6/2 182/6/2
f 175/6/2 179/6/2 183/6/2
f 181/6/2 182/6/2 183/6/2
f 180/6/2 181/6/2 183/6/2
f 179/6/2 180/6/2 183/6/2
f 183/6/2 182/6/2 184/6/2
f 184/6/2 182/6/2 185/6/2
f 182/6/2 178/6/2 186/6/2
f 185/6/2 182/6/2 186/6/2
f 175/6/2 183/6/2 187/6/2
f 187/6/2 183/6/2 188/6/2
f 186/6/2 178/6/2 189/6/2
f 189/6/2 178/6/2 190/6/2
f 184/6/2 185/6/2 191/6/2
f 191/6/2 185/6/2 192/6/2
f 198/1/3 194/1/3 193/1/3
f 199/2/3 195/2/3 194/2/3
f 199/1/3 194/1/3 198/1/3
f 200/1/3 196/1/3 195/1/3
f 200/2/3 195/2/3 199/2/3
f 201/3/3 197/3/3 196/3/3
f 201/1/3 196/1/3 200/1/3
f 202/3/3 197/3/3 201/3/3
f 206/5/3 204/5/3 203/5/3
f 207/5/3 204/5/3 206/5/3
f 210/5/3 206/5/3 205/5/3
f 210/5/3 207/5/3 206/5/3
f 210/5/3 208/5/3 207/5/3
f 211/6/3 209/6/3 208/6/3
f 211/5/3 208/5/3 210/5/3
f 212/6/3 209/6/3 211/6/3
f 215/6/3 214/6/3 213/6/3
f 216/6/3 214/6/3 215/6/3
f 219/4/3 218/4/3 217/4/3
f 220/4/3 218/4/3 219/4/3
f 225/4/3 222/4/3 221/4/3
f 226/4/3 222/4/3 225/4/3
f 227/4/3 224/4/3 223/4/3
f 228/4/3 224/4/3 227/4/3
f 238/6/3 230/6/3 229/6/3
f 239/6/3 230/6/3 238/6/3
f 240/6/3 232/6/3 231/6/3
f 240/6/3 233/6/3 232/6/3
f 240/6/3 234/6/3 233/6/3
f 241/6/3 234/6/3 240/6/3
f 242/6/3 237/6/3 236/6/3
f 242/6/3 238/6/3 237/6/3
f 242/6/3 236/6/3 235/6/3
f 243/6/3 238/6/3 242/6/3
f 246/5/3 245/5/3 244/5/3
f 247/5/3 245/5/3 246/5/3
f 248/5/3 245/5/3 247/5/3
f 253/6/3 250/6/3 249/6/3
f 254/6/3 250/6/3 253/6/3
f 255/6/3 252/6/3 251/6/3
f 256/6/3 252/6/3 255/6/3
f 259/1/3 258/1/3 257/1/3
f 260/1/3 258/1/3 259/1/3
f 261/1/4 262/1/4 263/1/4
f 263/1/4 262/1/4 264/1/4
f 265/5/4 266/5/4 267/5/4
f 267/5/4 266/5/4 268/5/4
f 268/5/4 266/5/4 269/5/4
f 270/6/4 271/6/4 274/6/4
f 274/6/4 271/6/4 275/6/4
f 272/6/4 273/6/4 276/6/4
f 276/6/4 273/6/4 277/6/4
f 278/4/4 279/4/4 282/4/4
f 282/4/4 279/4/4 283/4/4
f 280/4/4 281/4/4 284/4/4
f 284/4/4 281/4/4 285/4/4
f 286/6/4 287/6/4 295/6/4
f 295/6/4 287/6/4 296/6/4
f 288/6/4 289/6/4 297/6/4
f 289/6/4 290/6/4 297/6/4
f 290/6/4 291/6/4 297/6/4
f 297/6/4 291/6/4 298/6/4
f 293/6/4 294/6/4 299/6/4
f 294/6/4 295/6/4 299/6/4
f 292/6/4 293/6/4 299/6/4
f 299/6/4 295/6/4 300/6/4
f 301/4/4 302/4/4 303/4/4
f 303/4/4 302/4/4 304/4/4
f 305/6/4 306/6/4 307/6/4
f 307/6/4 306/6/4 308/6/4
f 309/5/4 310/5/4 314/5/4
f 314/5/4 310/5/4 315/5/4
f 312/5/4 313/5/4 318/5/4
f 311/5/4 312/5/4 318/5/4
f 315/5/4 316/5/4 318/5/4
f 314/5/4 315/5/4 318/5/4
f 313/5/4 314/5/4 318/5/4
f 316/6/4 317/6/4 319/6/4
f 318/5/4 316/5/4 319/5/4
f 319/6/4 317/6/4 320/6/4
f 321/1/4 322/1/4 324/1/4
f 322/3/4 323/3/4 325/3/4
f 324/1/4 322/1/4 325/1/4
f 325/3/4 323/3/4 326/3/4
f 329/1/5 328/1/5 327/1/5
f 330/1/5 328/1/5 329/1/5
f 331/2/5 330/2/5 329/2/5
f 332/2/5 330/2/5 331/2/5
f 333/1/5 332/1/5 331/1/5
f 334/1/5 332/1/5 333/1/5
f 336/5/5 334/5/5 333/5/5
f 336/5/5 335/5/5 334/5/5
f 337/5/5 335/5/5 336/5/5
f 338/5/5 335/5/5 337/5/5
f 339/4/5 338/4/5 337/4/5
f 340/4/5 338/4/5 339/4/5
f 341/6/5 340/6/5 339/6/5
f 343/6/5 341/6/5 339/6/5
f 343/6/5 342/6/5 341/6/5
f 344/6/5 342/6/5 343/6/5
f 345/6/5 343/6/5 339/6/5
f 346/6/5 343/6/5 345/6/5
f 348/4/5 346/4/5 345/4/5
f 349/4/5 346/4/5 348/4/5
f 350/5/5 348/5/5 347/5/5
f 350/5/5 349/5/5 348/5/5
f 351/5/5 349/5/5 350/5/5
f 352/5/5 349/5/5 351/5/5
f 353/1/5 351/1/5 350/1/5
f 354/1/5 351/1/5 353/1/5
f 357/6/5 356/6/5 355/6/5
f 358/6/5 356/6/5 357/6/5
f 361/4/5 360/4/5 359/4/5
f 362/4/5 360/4/5 361/4/5
f 365/6/5 364/6/5 363/6/5
f 366/6/5 364/6/5 365/6/5
f 371/6/5 368/6/5 367/6/5
f 372/4/5 370/4/5 369/4/5
f 373/4/5 370/4/5 372/4/5
f 374/6/5 368/6/5 371/6/5
f 375/6/5 368/6/5 374/6/5
f 380/4/5 377/4/5 376/4/5
f 381/4/5 377/4/5 380/4/5
f 382/6/5 379/6/5 378/6/5
f 383/6/5 379/6/5 382/6/5
f 384/6/5 379/6/5 383/6/5
f 387/1/5 386/1/5 385/1/5
f 388/1/5 386/1/5 387/1/5
f 391/1/5 390/1/5 389/1/5
f 392/1/5 390/1/5 391/1/5
f 393/2/5 392/2/5 391/2/5
f 394/2/5 392/2/5 393/2/5
f 395/1/5 394/1/5 393/1/5
f 396/1/5 394/1/5 395/1/5
f 397/1/6 398/1/6 399/1/6
f 399/1/6 398/1/6 400/1/6
f 401/1/6 402/1/6 403/1/6
f 403/1/6 402/1/6 404/1/6
f 405/6/6 406/6/6 407/6/6
f 407/6/6 406/6/6 408/6/6
f 409/6/6 410/6/6 411/6/6
f 411/6/6 410/6/6 412/6/6
f 413/6/6 414/6/6 415/6/6
f 415/6/6 414/6/6 416/6/6
f 417/4/6 418/4/6 419/4/6
f 419/4/6 418/4/6 420/4/6
f 421/4/6 422/4/6 423/4/6
f 423/4/6 422/4/6 424/4/6
f 425/6/6 426/6/6 427/6/6
f 427/6/6 426/6/6 428/6/6
f 429/4/6 430/4/6 431/4/6
f 431/4/6 430/4/6 432/4/6
f 433/3/6 434/3/6 435/3/6
f 435/3/6 434/3/6 436/3/6
f 435/5/6 436/5/6 438/5/6
f 436/6/6 437/6/6 439/6/6
f 438/5/6 436/5/6 439/5/6
f 439/6/6 437/6/6 440/6/6
f 440/6/6 437/6/6 441/6/6
f 441/6/6 442/6/6 444/6/6
f 444/6/6 442/6/6 445/6/6
f 443/6/6 444/6/6 447/6/6
f 446/5/6 447/5/6 448/5/6
f 447/6/6 444/6/6 449/6/6
f 448/5/6 447/5/6 449/5/6
f 449/6/6 444/6/6 450/6/6
f 448/3/6 449/3/6 451/3/6
f 451/3/6 449/3/6 452/3/6
f 453/6/6 454/6/6 455/6/6
f 455/6/6 454/6/6 456/6/6
