# MagicaVoxel @ Ephtracy

# group
g room_1100

# material
mtllib room_1100.mtl
usemtl palette

# normals
vn -1 0 0
vn 1 0 0
vn 0 0 1
vn 0 0 -1
vn 0 -1 0
vn 0 1 0

# texcoords
vt 0.970703 0.5
vt 0.974609 0.5
vt 0.978516 0.5

# verts
v -10 0 10
v -10 0 -10
v -10 2 -9
v -10 2 -10
v -10 3 10
v -10 3 -9
v -10 3 -10
v -10 5 -9
v -10 5 -10
v -10 6 -9
v -10 6 -10
v -10 9 -9
v -10 9 -10
v -10 10 -9
v -10 10 -10
v 8 6 -9
v 8 6 -10
v 8 7 -9
v 8 7 -10
v 9 3 10
v 9 3 -7
v 9 3 -8
v 9 3 -9
v 9 4 6
v 9 4 5
v 9 4 -0
v 9 4 -1
v 9 4 -7
v 9 4 -8
v 9 5 6
v 9 5 5
v 9 5 -0
v 9 5 -1
v 9 6 8
v 9 6 -8
v 9 7 8
v 9 7 7
v 9 7 6
v 9 7 -8
v 9 8 7
v 9 8 6
v 9 9 10
v 9 9 -9
v 9 10 10
v 9 10 -9
v -8 6 -9
v -8 6 -10
v -8 7 -9
v -8 7 -10
v 9 2 10
v 9 2 7
v 9 2 6
v 9 2 -9
v 9 3 10
v 9 3 -7
v 9 3 -8
v 9 3 -9
v 10 0 10
v 10 0 -4
v 10 0 -5
v 10 0 -10
v 10 1 7
v 10 1 6
v 10 1 -4
v 10 1 -5
v 10 2 10
v 10 2 7
v 10 2 6
v 10 2 -10
v 10 3 10
v 10 3 -7
v 10 3 -8
v 10 3 -10
v 10 4 6
v 10 4 5
v 10 4 -0
v 10 4 -1
v 10 4 -7
v 10 4 -8
v 10 4 -9
v 10 4 -10
v 10 5 6
v 10 5 5
v 10 5 -0
v 10 5 -1
v 10 5 -9
v 10 5 -10
v 10 6 8
v 10 6 -8
v 10 7 8
v 10 7 7
v 10 7 6
v 10 7 -8
v 10 8 7
v 10 8 6
v 10 9 10
v 10 9 -10
v 10 10 10
v 10 10 -10
v -10 0 10
v -10 3 10
v 9 2 10
v 9 3 10
v 9 9 10
v 9 10 10
v 10 0 10
v 10 2 10
v 10 3 10
v 10 9 10
v 10 10 10
v 9 6 -8
v 9 7 -8
v 10 6 -8
v 10 7 -8
v -10 3 -9
v -10 5 -9
v -10 6 -9
v -10 9 -9
v -10 10 -9
v -9 5 -9
v -9 6 -9
v -8 6 -9
v -8 7 -9
v -4 3 -9
v -4 4 -9
v -3 3 -9
v -3 4 -9
v 2 4 -9
v 2 5 -9
v 3 4 -9
v 3 5 -9
v 6 8 -9
v 6 9 -9
v 7 8 -9
v 7 9 -9
v 8 6 -9
v 8 7 -9
v 9 3 -9
v 9 9 -9
v 9 10 -9
v 9 6 8
v 9 7 8
v 10 6 8
v 10 7 8
v -10 2 -9
v -10 3 -9
v -4 3 -9
v -3 3 -9
v 4 2 -9
v 5 2 -9
v 9 2 -9
v 9 3 -9
v -10 0 -10
v -10 2 -10
v -10 3 -10
v -10 5 -10
v -10 6 -10
v -10 9 -10
v -10 10 -10
v -9 5 -10
v -9 6 -10
v -8 6 -10
v -8 7 -10
v -4 3 -10
v -4 4 -10
v -3 3 -10
v -3 4 -10
v -1 0 -10
v -1 1 -10
v 0 0 -10
v 0 1 -10
v 2 4 -10
v 2 5 -10
v 3 4 -10
v 3 5 -10
v 4 1 -10
v 4 2 -10
v 5 1 -10
v 5 2 -10
v 6 8 -10
v 6 9 -10
v 7 8 -10
v 7 9 -10
v 8 6 -10
v 8 7 -10
v 9 4 -10
v 9 5 -10
v 10 0 -10
v 10 2 -10
v 10 3 -10
v 10 4 -10
v 10 5 -10
v 10 9 -10
v 10 10 -10
v -10 0 10
v 10 0 10
v -6 0 6
v -5 0 6
v 5 0 6
v 6 0 6
v -6 0 5
v -5 0 5
v 5 0 5
v 6 0 5
v 9 0 -4
v 10 0 -4
v -6 0 -5
v -5 0 -5
v 5 0 -5
v 6 0 -5
v 9 0 -5
v 10 0 -5
v -6 0 -6
v -5 0 -6
v 5 0 -6
v 6 0 -6
v -1 0 -9
v 0 0 -9
v -10 0 -10
v -1 0 -10
v 0 0 -10
v 10 0 -10
v 9 3 10
v 10 3 10
v 9 3 -7
v 10 3 -7
v 9 3 -8
v 10 3 -8
v -10 3 -9
v -4 3 -9
v -3 3 -9
v 9 3 -9
v -10 3 -10
v -4 3 -10
v -3 3 -10
v 10 3 -10
v 9 7 8
v 10 7 8
v 9 7 7
v 10 7 7
v 9 7 6
v 10 7 6
v 9 7 -8
v 10 7 -8
v -8 7 -9
v 8 7 -9
v -8 7 -10
v 8 7 -10
v 9 2 10
v 10 2 10
v 9 2 7
v 10 2 7
v 9 2 6
v 10 2 6
v -10 2 -9
v 4 2 -9
v 5 2 -9
v 9 2 -9
v -10 2 -10
v 4 2 -10
v 5 2 -10
v 10 2 -10
v -10 3 10
v 9 3 10
v -2 3 7
v -1 3 7
v 1 3 7
v 2 3 7
v -2 3 6
v -1 3 6
v 1 3 6
v 2 3 6
v -7 3 4
v -6 3 4
v -4 3 4
v -3 3 4
v 3 3 4
v 4 3 4
v 6 3 4
v 7 3 4
v -7 3 3
v -6 3 3
v -4 3 3
v -3 3 3
v 3 3 3
v 4 3 3
v 6 3 3
v 7 3 3
v -7 3 -3
v -6 3 -3
v -4 3 -3
v -3 3 -3
v 3 3 -3
v 4 3 -3
v 6 3 -3
v 7 3 -3
v -7 3 -4
v -6 3 -4
v -4 3 -4
v -3 3 -4
v 3 3 -4
v 4 3 -4
v 6 3 -4
v 7 3 -4
v -2 3 -6
v -1 3 -6
v 1 3 -6
v 2 3 -6
v -2 3 -7
v -1 3 -7
v 1 3 -7
v 2 3 -7
v 9 3 -7
v 9 3 -8
v -10 3 -9
v -4 3 -9
v -3 3 -9
v 9 3 -9
v 9 6 8
v 10 6 8
v 9 6 -8
v 10 6 -8
v -8 6 -9
v 8 6 -9
v -8 6 -10
v 8 6 -10
v 9 10 10
v 10 10 10
v -10 10 -9
v 9 10 -9
v -10 10 -10
v 10 10 -10

# faces
f 3/1/1 2/1/1 1/1/1
f 4/1/1 2/1/1 3/1/1
f 5/1/1 3/1/1 1/1/1
f 6/1/1 3/1/1 5/1/1
f 8/1/1 7/1/1 6/1/1
f 9/1/1 7/1/1 8/1/1
f 10/2/1 9/2/1 8/2/1
f 11/2/1 9/2/1 10/2/1
f 12/1/1 11/1/1 10/1/1
f 13/1/1 11/1/1 12/1/1
f 14/3/1 13/3/1 12/3/1
f 15/3/1 13/3/1 14/3/1
f 18/1/1 17/1/1 16/1/1
f 19/1/1 17/1/1 18/1/1
f 24/1/1 21/1/1 20/1/1
f 25/1/1 21/1/1 24/1/1
f 26/1/1 21/1/1 25/1/1
f 27/1/1 21/1/1 26/1/1
f 28/2/1 22/2/1 21/2/1
f 28/1/1 21/1/1 27/1/1
f 29/1/1 23/1/1 22/1/1
f 29/2/1 22/2/1 28/2/1
f 30/1/1 24/1/1 20/1/1
f 30/2/1 25/2/1 24/2/1
f 31/1/1 26/1/1 25/1/1
f 31/2/1 25/2/1 30/2/1
f 32/2/1 27/2/1 26/2/1
f 32/1/1 26/1/1 31/1/1
f 33/1/1 28/1/1 27/1/1
f 33/2/1 27/2/1 32/2/1
f 33/1/1 29/1/1 28/1/1
f 34/1/1 32/1/1 31/1/1
f 34/1/1 31/1/1 30/1/1
f 34/1/1 33/1/1 32/1/1
f 34/1/1 30/1/1 20/1/1
f 35/1/1 29/1/1 33/1/1
f 35/1/1 33/1/1 34/1/1
f 35/1/1 23/1/1 29/1/1
f 36/1/1 34/1/1 20/1/1
f 39/1/1 23/1/1 35/1/1
f 40/2/1 38/2/1 37/2/1
f 40/1/1 37/1/1 36/1/1
f 41/1/1 39/1/1 38/1/1
f 41/2/1 38/2/1 40/2/1
f 42/1/1 40/1/1 36/1/1
f 42/1/1 36/1/1 20/1/1
f 42/1/1 41/1/1 40/1/1
f 43/1/1 39/1/1 41/1/1
f 43/1/1 41/1/1 42/1/1
f 43/1/1 23/1/1 39/1/1
f 44/3/1 43/3/1 42/3/1
f 45/3/1 43/3/1 44/3/1
f 46/1/2 47/1/2 48/1/2
f 48/1/2 47/1/2 49/1/2
f 50/1/2 51/1/2 54/1/2
f 52/1/2 53/1/2 54/1/2
f 51/1/2 52/1/2 54/1/2
f 54/1/2 53/1/2 55/1/2
f 55/1/2 53/1/2 56/1/2
f 56/1/2 53/1/2 57/1/2
f 58/1/2 59/1/2 62/1/2
f 62/1/2 59/1/2 63/1/2
f 59/2/2 60/2/2 64/2/2
f 63/1/2 59/1/2 64/1/2
f 60/1/2 61/1/2 65/1/2
f 64/2/2 60/2/2 65/2/2
f 58/1/2 62/1/2 66/1/2
f 62/2/2 63/2/2 67/2/2
f 66/1/2 62/1/2 67/1/2
f 63/1/2 64/1/2 68/1/2
f 67/2/2 63/2/2 68/2/2
f 64/1/2 65/1/2 68/1/2
f 65/1/2 61/1/2 69/1/2
f 68/1/2 65/1/2 69/1/2
f 70/1/2 71/1/2 74/1/2
f 74/1/2 71/1/2 75/1/2
f 75/1/2 71/1/2 76/1/2
f 76/1/2 71/1/2 77/1/2
f 71/2/2 72/2/2 78/2/2
f 77/1/2 71/1/2 78/1/2
f 72/1/2 73/1/2 79/1/2
f 78/2/2 72/2/2 79/2/2
f 79/1/2 73/1/2 80/1/2
f 80/1/2 73/1/2 81/1/2
f 70/1/2 74/1/2 82/1/2
f 74/2/2 75/2/2 82/2/2
f 75/1/2 76/1/2 83/1/2
f 82/2/2 75/2/2 83/2/2
f 76/2/2 77/2/2 84/2/2
f 83/1/2 76/1/2 84/1/2
f 77/1/2 78/1/2 85/1/2
f 84/2/2 77/2/2 85/2/2
f 78/1/2 79/1/2 85/1/2
f 79/1/2 80/1/2 85/1/2
f 80/2/2 81/2/2 86/2/2
f 85/1/2 80/1/2 86/1/2
f 86/2/2 81/2/2 87/2/2
f 83/1/2 84/1/2 88/1/2
f 82/1/2 83/1/2 88/1/2
f 86/1/2 87/1/2 88/1/2
f 85/1/2 86/1/2 88/1/2
f 70/1/2 82/1/2 88/1/2
f 84/1/2 85/1/2 88/1/2
f 88/1/2 87/1/2 89/1/2
f 70/1/2 88/1/2 90/1/2
f 89/1/2 87/1/2 93/1/2
f 91/2/2 92/2/2 94/2/2
f 90/1/2 91/1/2 94/1/2
f 92/1/2 93/1/2 95/1/2
f 94/2/2 92/2/2 95/2/2
f 90/1/2 94/1/2 96/1/2
f 70/1/2 90/1/2 96/1/2
f 94/1/2 95/1/2 96/1/2
f 95/1/2 93/1/2 97/1/2
f 96/1/2 95/1/2 97/1/2
f 93/1/2 87/1/2 97/1/2
f 96/3/2 97/3/2 98/3/2
f 98/3/2 97/3/2 99/3/2
f 102/1/3 101/1/3 100/1/3
f 103/1/3 101/1/3 102/1/3
f 106/1/3 102/1/3 100/1/3
f 107/1/3 102/1/3 106/1/3
f 108/1/3 104/1/3 103/1/3
f 109/3/3 105/3/3 104/3/3
f 109/1/3 104/1/3 108/1/3
f 110/3/3 105/3/3 109/3/3
f 113/1/3 112/1/3 111/1/3
f 114/1/3 112/1/3 113/1/3
f 120/1/3 116/1/3 115/1/3
f 120/2/3 117/2/3 116/2/3
f 121/1/3 118/1/3 117/1/3
f 121/2/3 117/2/3 120/2/3
f 122/1/3 121/1/3 120/1/3
f 122/1/3 118/1/3 121/1/3
f 123/1/3 118/1/3 122/1/3
f 124/1/3 120/1/3 115/1/3
f 124/1/3 122/1/3 120/1/3
f 125/1/3 122/1/3 124/1/3
f 126/2/3 125/2/3 124/2/3
f 127/1/3 122/1/3 125/1/3
f 127/2/3 125/2/3 126/2/3
f 128/1/3 127/1/3 126/1/3
f 128/1/3 122/1/3 127/1/3
f 129/1/3 122/1/3 128/1/3
f 130/1/3 128/1/3 126/1/3
f 130/2/3 129/2/3 128/2/3
f 131/1/3 122/1/3 129/1/3
f 131/2/3 129/2/3 130/2/3
f 132/1/3 118/1/3 123/1/3
f 133/3/3 119/3/3 118/3/3
f 133/1/3 118/1/3 132/1/3
f 134/1/3 132/1/3 123/1/3
f 134/2/3 133/2/3 132/2/3
f 135/3/3 119/3/3 133/3/3
f 135/2/3 133/2/3 134/2/3
f 136/1/3 122/1/3 131/1/3
f 136/1/3 131/1/3 130/1/3
f 137/1/3 134/1/3 123/1/3
f 137/1/3 135/1/3 134/1/3
f 138/1/3 136/1/3 130/1/3
f 138/1/3 137/1/3 136/1/3
f 138/1/3 130/1/3 126/1/3
f 139/1/3 135/1/3 137/1/3
f 139/1/3 137/1/3 138/1/3
f 139/3/3 119/3/3 135/3/3
f 140/3/3 119/3/3 139/3/3
f 141/1/4 142/1/4 143/1/4
f 143/1/4 142/1/4 144/1/4
f 145/1/4 146/1/4 147/1/4
f 145/1/4 147/1/4 148/1/4
f 145/1/4 148/1/4 149/1/4
f 149/1/4 148/1/4 150/1/4
f 150/1/4 148/1/4 151/1/4
f 151/1/4 148/1/4 152/1/4
f 155/1/4 156/1/4 160/1/4
f 156/2/4 157/2/4 160/2/4
f 157/1/4 158/1/4 161/1/4
f 160/2/4 157/2/4 161/2/4
f 160/1/4 161/1/4 162/1/4
f 161/1/4 158/1/4 162/1/4
f 162/1/4 158/1/4 163/1/4
f 155/1/4 160/1/4 164/1/4
f 160/1/4 162/1/4 164/1/4
f 164/1/4 162/1/4 165/1/4
f 164/2/4 165/2/4 166/2/4
f 165/1/4 162/1/4 167/1/4
f 166/2/4 165/2/4 167/2/4
f 153/1/4 154/1/4 168/1/4
f 168/1/4 154/1/4 169/1/4
f 168/2/4 169/2/4 170/2/4
f 169/1/4 154/1/4 171/1/4
f 170/2/4 169/2/4 171/2/4
f 167/1/4 162/1/4 172/1/4
f 166/1/4 167/1/4 172/1/4
f 172/1/4 162/1/4 173/1/4
f 166/1/4 172/1/4 174/1/4
f 172/2/4 173/2/4 174/2/4
f 173/1/4 162/1/4 175/1/4
f 174/2/4 173/2/4 175/2/4
f 171/1/4 154/1/4 176/1/4
f 170/1/4 171/1/4 176/1/4
f 176/1/4 154/1/4 177/1/4
f 170/1/4 176/1/4 178/1/4
f 176/2/4 177/2/4 178/2/4
f 178/2/4 177/2/4 179/2/4
f 163/1/4 158/1/4 180/1/4
f 158/3/4 159/3/4 181/3/4
f 180/1/4 158/1/4 181/1/4
f 163/1/4 180/1/4 182/1/4
f 180/2/4 181/2/4 182/2/4
f 181/3/4 159/3/4 183/3/4
f 182/2/4 181/2/4 183/2/4
f 175/1/4 162/1/4 184/1/4
f 174/1/4 175/1/4 184/1/4
f 163/1/4 182/1/4 185/1/4
f 182/1/4 183/1/4 185/1/4
f 174/1/4 184/1/4 186/1/4
f 184/1/4 185/1/4 186/1/4
f 166/1/4 174/1/4 186/1/4
f 186/1/4 185/1/4 187/1/4
f 178/1/4 179/1/4 188/1/4
f 170/1/4 178/1/4 188/1/4
f 188/1/4 179/1/4 189/1/4
f 166/1/4 186/1/4 190/1/4
f 186/2/4 187/2/4 191/2/4
f 190/1/4 186/1/4 191/1/4
f 187/1/4 185/1/4 192/1/4
f 191/2/4 187/2/4 192/2/4
f 183/3/4 159/3/4 193/3/4
f 192/1/4 185/1/4 193/1/4
f 185/1/4 183/1/4 193/1/4
f 193/3/4 159/3/4 194/3/4
f 197/1/5 196/1/5 195/1/5
f 198/1/5 196/1/5 197/1/5
f 199/1/5 196/1/5 198/1/5
f 200/1/5 196/1/5 199/1/5
f 201/1/5 197/1/5 195/1/5
f 201/2/5 198/2/5 197/2/5
f 202/1/5 199/1/5 198/1/5
f 202/2/5 198/2/5 201/2/5
f 203/2/5 200/2/5 199/2/5
f 203/1/5 199/1/5 202/1/5
f 204/1/5 196/1/5 200/1/5
f 204/2/5 200/2/5 203/2/5
f 205/1/5 203/1/5 202/1/5
f 205/1/5 196/1/5 204/1/5
f 205/1/5 204/1/5 203/1/5
f 205/1/5 202/1/5 201/1/5
f 206/1/5 196/1/5 205/1/5
f 207/1/5 201/1/5 195/1/5
f 207/1/5 205/1/5 201/1/5
f 208/1/5 205/1/5 207/1/5
f 209/1/5 205/1/5 208/1/5
f 210/1/5 205/1/5 209/1/5
f 211/2/5 206/2/5 205/2/5
f 211/1/5 205/1/5 210/1/5
f 212/2/5 206/2/5 211/2/5
f 213/1/5 207/1/5 195/1/5
f 213/2/5 208/2/5 207/2/5
f 214/1/5 209/1/5 208/1/5
f 214/2/5 208/2/5 213/2/5
f 215/2/5 210/2/5 209/2/5
f 215/1/5 209/1/5 214/1/5
f 216/1/5 212/1/5 211/1/5
f 216/2/5 210/2/5 215/2/5
f 216/1/5 211/1/5 210/1/5
f 217/1/5 214/1/5 213/1/5
f 217/1/5 215/1/5 214/1/5
f 217/1/5 216/1/5 215/1/5
f 218/1/5 216/1/5 217/1/5
f 219/1/5 213/1/5 195/1/5
f 219/1/5 217/1/5 213/1/5
f 220/2/5 218/2/5 217/2/5
f 220/1/5 217/1/5 219/1/5
f 221/1/5 216/1/5 218/1/5
f 221/2/5 218/2/5 220/2/5
f 222/1/5 212/1/5 216/1/5
f 222/1/5 216/1/5 221/1/5
f 225/1/5 224/1/5 223/1/5
f 226/1/5 224/1/5 225/1/5
f 227/2/5 226/2/5 225/2/5
f 228/2/5 226/2/5 227/2/5
f 232/1/5 228/1/5 227/1/5
f 233/1/5 230/1/5 229/1/5
f 234/2/5 231/2/5 230/2/5
f 234/1/5 230/1/5 233/1/5
f 235/1/5 232/1/5 231/1/5
f 235/2/5 231/2/5 234/2/5
f 236/1/5 228/1/5 232/1/5
f 236/1/5 232/1/5 235/1/5
f 239/1/5 238/1/5 237/1/5
f 240/1/5 238/1/5 239/1/5
f 241/2/5 240/2/5 239/2/5
f 242/2/5 240/2/5 241/2/5
f 243/1/5 242/1/5 241/1/5
f 244/1/5 242/1/5 243/1/5
f 247/1/5 246/1/5 245/1/5
f 248/1/5 246/1/5 247/1/5
f 249/1/6 250/1/6 251/1/6
f 251/1/6 250/1/6 252/1/6
f 251/2/6 252/2/6 253/2/6
f 253/2/6 252/2/6 254/2/6
f 253/1/6 254/1/6 258/1/6
f 255/1/6 256/1/6 259/1/6
f 256/2/6 257/2/6 260/2/6
f 259/1/6 256/1/6 260/1/6
f 257/1/6 258/1/6 261/1/6
f 260/2/6 257/2/6 261/2/6
f 258/1/6 254/1/6 262/1/6
f 261/1/6 258/1/6 262/1/6
f 263/1/6 264/1/6 265/1/6
f 265/1/6 264/1/6 266/1/6
f 266/1/6 264/1/6 267/1/6
f 267/1/6 264/1/6 268/1/6
f 263/1/6 265/1/6 269/1/6
f 265/2/6 266/2/6 269/2/6
f 266/1/6 267/1/6 270/1/6
f 269/2/6 266/2/6 270/2/6
f 267/2/6 268/2/6 271/2/6
f 270/1/6 267/1/6 271/1/6
f 268/1/6 264/1/6 272/1/6
f 271/2/6 268/2/6 272/2/6
f 270/1/6 271/1/6 273/1/6
f 269/1/6 270/1/6 273/1/6
f 271/1/6 272/1/6 273/1/6
f 263/1/6 269/1/6 273/1/6
f 273/1/6 272/1/6 274/1/6
f 274/1/6 272/1/6 275/1/6
f 275/1/6 272/1/6 276/1/6
f 272/1/6 264/1/6 277/1/6
f 276/1/6 272/1/6 277/1/6
f 277/1/6 264/1/6 278/1/6
f 278/1/6 264/1/6 279/1/6
f 279/1/6 264/1/6 280/1/6
f 263/1/6 273/1/6 281/1/6
f 273/2/6 274/2/6 281/2/6
f 274/1/6 275/1/6 282/1/6
f 281/2/6 274/2/6 282/2/6
f 275/3/6 276/3/6 283/3/6
f 282/1/6 275/1/6 283/1/6
f 276/1/6 277/1/6 284/1/6
f 283/3/6 276/3/6 284/3/6
f 277/3/6 278/3/6 285/3/6
f 284/1/6 277/1/6 285/1/6
f 278/1/6 279/1/6 286/1/6
f 285/3/6 278/3/6 286/3/6
f 279/2/6 280/2/6 287/2/6
f 286/1/6 279/1/6 287/1/6
f 280/1/6 264/1/6 288/1/6
f 287/2/6 280/2/6 288/2/6
f 281/1/6 282/1/6 289/1/6
f 286/1/6 287/1/6 289/1/6
f 287/1/6 288/1/6 289/1/6
f 284/1/6 285/1/6 289/1/6
f 283/1/6 284/1/6 289/1/6
f 282/1/6 283/1/6 289/1/6
f 263/1/6 281/1/6 289/1/6
f 285/1/6 286/1/6 289/1/6
f 289/1/6 288/1/6 290/1/6
f 290/1/6 288/1/6 291/1/6
f 291/1/6 288/1/6 292/1/6
f 292/1/6 288/1/6 293/1/6
f 293/1/6 288/1/6 294/1/6
f 294/1/6 288/1/6 295/1/6
f 288/1/6 264/1/6 296/1/6
f 295/1/6 288/1/6 296/1/6
f 263/1/6 289/1/6 297/1/6
f 289/2/6 290/2/6 297/2/6
f 290/1/6 291/1/6 298/1/6
f 297/2/6 290/2/6 298/2/6
f 291/3/6 292/3/6 299/3/6
f 298/1/6 291/1/6 299/1/6
f 292/1/6 293/1/6 300/1/6
f 299/3/6 292/3/6 300/3/6
f 293/3/6 294/3/6 301/3/6
f 300/1/6 293/1/6 301/1/6
f 294/1/6 295/1/6 302/1/6
f 301/3/6 294/3/6 302/3/6
f 295/2/6 296/2/6 303/2/6
f 302/1/6 295/1/6 303/1/6
f 296/1/6 264/1/6 304/1/6
f 303/2/6 296/2/6 304/2/6
f 300/1/6 301/1/6 305/1/6
f 302/1/6 303/1/6 305/1/6
f 303/1/6 304/1/6 305/1/6
f 299/1/6 300/1/6 305/1/6
f 298/1/6 299/1/6 305/1/6
f 297/1/6 298/1/6 305/1/6
f 301/1/6 302/1/6 305/1/6
f 305/1/6 304/1/6 306/1/6
f 306/1/6 304/1/6 307/1/6
f 307/1/6 304/1/6 308/1/6
f 297/1/6 305/1/6 309/1/6
f 305/2/6 306/2/6 309/2/6
f 306/1/6 307/1/6 310/1/6
f 309/2/6 306/2/6 310/2/6
f 307/2/6 308/2/6 311/2/6
f 310/1/6 307/1/6 311/1/6
f 308/1/6 304/1/6 312/1/6
f 311/2/6 308/2/6 312/2/6
f 304/1/6 264/1/6 313/1/6
f 312/1/6 304/1/6 313/1/6
f 311/1/6 312/1/6 314/1/6
f 310/1/6 311/1/6 314/1/6
f 312/1/6 313/1/6 314/1/6
f 309/1/6 310/1/6 314/1/6
f 263/1/6 297/1/6 315/1/6
f 297/1/6 309/1/6 315/1/6
f 309/1/6 314/1/6 315/1/6
f 315/1/6 314/1/6 316/1/6
f 316/1/6 314/1/6 317/1/6
f 317/1/6 314/1/6 318/1/6
f 319/1/6 320/1/6 321/1/6
f 321/1/6 320/1/6 322/1/6
f 323/1/6 324/1/6 325/1/6
f 325/1/6 324/1/6 326/1/6
f 327/3/6 328/3/6 330/3/6
f 329/3/6 330/3/6 331/3/6
f 330/3/6 328/3/6 332/3/6
f 331/3/6 330/3/6 332/3/6
