# MagicaVoxel @ Ephtracy

# group
g room_1010

# material
mtllib room_1010.mtl
usemtl palette

# normals
vn -1 0 0
vn 1 0 0
vn 0 0 1
vn 0 0 -1
vn 0 -1 0
vn 0 1 0

# texcoords
vt 0.970703 0.5
vt 0.974609 0.5
vt 0.978516 0.5

# verts
v -10 0 10
v -10 0 -10
v -10 2 10
v -10 2 9
v -10 2 -9
v -10 2 -10
v -10 3 10
v -10 3 9
v -10 3 -9
v -10 3 -10
v -10 9 10
v -10 9 9
v -10 9 -9
v -10 9 -10
v -10 10 10
v -10 10 9
v -10 10 -9
v -10 10 -10
v 8 6 10
v 8 6 9
v 8 6 -9
v 8 6 -10
v 8 7 10
v 8 7 9
v 8 7 -9
v 8 7 -10
v -8 6 10
v -8 6 9
v -8 6 -9
v -8 6 -10
v -8 7 10
v -8 7 9
v -8 7 -9
v -8 7 -10
v 10 0 10
v 10 0 -10
v 10 1 5
v 10 1 4
v 10 1 -4
v 10 1 -5
v 10 2 10
v 10 2 9
v 10 2 5
v 10 2 4
v 10 2 -4
v 10 2 -5
v 10 2 -9
v 10 2 -10
v 10 3 10
v 10 3 9
v 10 3 -9
v 10 3 -10
v 10 4 10
v 10 4 9
v 10 4 -9
v 10 4 -10
v 10 5 10
v 10 5 9
v 10 5 -9
v 10 5 -10
v 10 9 10
v 10 9 9
v 10 9 -9
v 10 9 -10
v 10 10 10
v 10 10 9
v 10 10 -9
v 10 10 -10
v -10 0 10
v -10 2 10
v -10 3 10
v -10 9 10
v -10 10 10
v -8 6 10
v -8 7 10
v -7 1 10
v -7 2 10
v -7 7 10
v -7 8 10
v -6 1 10
v -6 2 10
v -6 4 10
v -6 5 10
v -6 7 10
v -6 8 10
v -5 4 10
v -5 5 10
v 0 4 10
v 0 5 10
v 1 4 10
v 1 5 10
v 4 0 10
v 4 1 10
v 5 0 10
v 5 1 10
v 7 3 10
v 7 4 10
v 8 3 10
v 8 4 10
v 8 6 10
v 8 7 10
v 9 4 10
v 9 5 10
v 10 0 10
v 10 2 10
v 10 3 10
v 10 4 10
v 10 5 10
v 10 9 10
v 10 10 10
v -10 2 9
v -10 3 9
v -7 2 9
v -6 2 9
v 7 3 9
v 8 3 9
v 10 2 9
v 10 3 9
v -10 3 -9
v -10 9 -9
v -10 10 -9
v -8 6 -9
v -8 7 -9
v -7 7 -9
v -7 8 -9
v -6 4 -9
v -6 5 -9
v -6 7 -9
v -6 8 -9
v -5 4 -9
v -5 5 -9
v 0 4 -9
v 0 5 -9
v 1 4 -9
v 1 5 -9
v 7 3 -9
v 7 4 -9
v 8 3 -9
v 8 4 -9
v 8 6 -9
v 8 7 -9
v 9 4 -9
v 9 5 -9
v 10 3 -9
v 10 4 -9
v 10 5 -9
v 10 9 -9
v 10 10 -9
v -10 3 9
v -10 9 9
v -10 10 9
v -8 6 9
v -8 7 9
v -7 7 9
v -7 8 9
v -6 4 9
v -6 5 9
v -6 7 9
v -6 8 9
v -5 4 9
v -5 5 9
v 0 4 9
v 0 5 9
v 1 4 9
v 1 5 9
v 7 3 9
v 7 4 9
v 8 3 9
v 8 4 9
v 8 6 9
v 8 7 9
v 9 4 9
v 9 5 9
v 10 3 9
v 10 4 9
v 10 5 9
v 10 9 9
v 10 10 9
v -10 2 -9
v -10 3 -9
v -7 2 -9
v -6 2 -9
v 7 3 -9
v 8 3 -9
v 10 2 -9
v 10 3 -9
v -10 0 -10
v -10 2 -10
v -10 3 -10
v -10 9 -10
v -10 10 -10
v -8 6 -10
v -8 7 -10
v -7 1 -10
v -7 2 -10
v -7 7 -10
v -7 8 -10
v -6 1 -10
v -6 2 -10
v -6 4 -10
v -6 5 -10
v -6 7 -10
v -6 8 -10
v -5 4 -10
v -5 5 -10
v 0 4 -10
v 0 5 -10
v 1 4 -10
v 1 5 -10
v 4 0 -10
v 4 1 -10
v 5 0 -10
v 5 1 -10
v 7 3 -10
v 7 4 -10
v 8 3 -10
v 8 4 -10
v 8 6 -10
v 8 7 -10
v 9 4 -10
v 9 5 -10
v 10 0 -10
v 10 2 -10
v 10 3 -10
v 10 4 -10
v 10 5 -10
v 10 9 -10
v 10 10 -10
v -10 0 10
v 4 0 10
v 5 0 10
v 10 0 10
v 4 0 9
v 5 0 9
v -6 0 6
v -5 0 6
v 5 0 6
v 6 0 6
v -6 0 5
v -5 0 5
v 5 0 5
v 6 0 5
v -6 0 -5
v -5 0 -5
v 5 0 -5
v 6 0 -5
v -6 0 -6
v -5 0 -6
v 5 0 -6
v 6 0 -6
v 4 0 -9
v 5 0 -9
v -10 0 -10
v 4 0 -10
v 5 0 -10
v 10 0 -10
v -10 3 10
v 7 3 10
v 8 3 10
v 10 3 10
v -10 3 9
v 7 3 9
v 8 3 9
v 10 3 9
v -10 3 -9
v 7 3 -9
v 8 3 -9
v 10 3 -9
v -10 3 -10
v 7 3 -10
v 8 3 -10
v 10 3 -10
v -8 7 10
v -7 7 10
v -6 7 10
v 8 7 10
v -8 7 9
v -7 7 9
v -6 7 9
v 8 7 9
v -8 7 -9
v -7 7 -9
v -6 7 -9
v 8 7 -9
v -8 7 -10
v -7 7 -10
v -6 7 -10
v 8 7 -10
v -10 2 10
v -7 2 10
v -6 2 10
v 10 2 10
v -10 2 9
v -7 2 9
v -6 2 9
v 10 2 9
v -10 2 -9
v -7 2 -9
v -6 2 -9
v 10 2 -9
v -10 2 -10
v -7 2 -10
v -6 2 -10
v 10 2 -10
v -10 3 9
v 7 3 9
v 8 3 9
v 10 3 9
v -4 3 7
v -3 3 7
v 3 3 7
v 4 3 7
v -4 3 6
v -3 3 6
v 3 3 6
v 4 3 6
v -4 3 4
v -3 3 4
v 3 3 4
v 4 3 4
v -4 3 3
v -3 3 3
v 3 3 3
v 4 3 3
v -7 3 2
v -6 3 2
v 6 3 2
v 7 3 2
v -7 3 1
v -6 3 1
v 6 3 1
v 7 3 1
v -7 3 -1
v -6 3 -1
v 6 3 -1
v 7 3 -1
v -7 3 -2
v -6 3 -2
v 6 3 -2
v 7 3 -2
v -4 3 -3
v -3 3 -3
v 3 3 -3
v 4 3 -3
v -4 3 -4
v -3 3 -4
v 3 3 -4
v 4 3 -4
v -4 3 -6
v -3 3 -6
v 3 3 -6
v 4 3 -6
v -4 3 -7
v -3 3 -7
v 3 3 -7
v 4 3 -7
v -10 3 -9
v 7 3 -9
v 8 3 -9
v 10 3 -9
v -8 6 10
v 8 6 10
v -8 6 9
v 8 6 9
v -8 6 -9
v 8 6 -9
v -8 6 -10
v 8 6 -10
v -10 10 10
v 10 10 10
v -10 10 9
v 10 10 9
v -10 10 -9
v 10 10 -9
v -10 10 -10
v 10 10 -10

# faces
f 3/1/1 2/1/1 1/1/1
f 4/1/1 2/1/1 3/1/1
f 5/1/1 2/1/1 4/1/1
f 6/1/1 2/1/1 5/1/1
f 8/1/1 5/1/1 4/1/1
f 9/1/1 5/1/1 8/1/1
f 11/1/1 8/1/1 7/1/1
f 12/1/1 8/1/1 11/1/1
f 13/1/1 10/1/1 9/1/1
f 14/1/1 10/1/1 13/1/1
f 15/3/1 12/3/1 11/3/1
f 16/3/1 12/3/1 15/3/1
f 17/3/1 14/3/1 13/3/1
f 18/3/1 14/3/1 17/3/1
f 23/1/1 20/1/1 19/1/1
f 24/1/1 20/1/1 23/1/1
f 25/1/1 22/1/1 21/1/1
f 26/1/1 22/1/1 25/1/1
f 27/1/2 28/1/2 31/1/2
f 31/1/2 28/1/2 32/1/2
f 29/1/2 30/1/2 33/1/2
f 33/1/2 30/1/2 34/1/2
f 35/1/2 36/1/2 37/1/2
f 37/1/2 36/1/2 38/1/2
f 38/1/2 36/1/2 39/1/2
f 39/1/2 36/1/2 40/1/2
f 35/1/2 37/1/2 41/1/2
f 41/1/2 37/1/2 42/1/2
f 37/2/2 38/2/2 43/2/2
f 42/1/2 37/1/2 43/1/2
f 38/1/2 39/1/2 44/1/2
f 43/2/2 38/2/2 44/2/2
f 39/2/2 40/2/2 45/2/2
f 44/1/2 39/1/2 45/1/2
f 40/1/2 36/1/2 46/1/2
f 45/2/2 40/2/2 46/2/2
f 46/1/2 36/1/2 47/1/2
f 47/1/2 36/1/2 48/1/2
f 44/1/2 45/1/2 50/1/2
f 46/1/2 47/1/2 50/1/2
f 45/1/2 46/1/2 50/1/2
f 42/1/2 43/1/2 50/1/2
f 43/1/2 44/1/2 50/1/2
f 50/1/2 47/1/2 51/1/2
f 49/1/2 50/1/2 53/1/2
f 53/1/2 50/1/2 54/1/2
f 51/1/2 52/1/2 55/1/2
f 55/1/2 52/1/2 56/1/2
f 53/2/2 54/2/2 57/2/2
f 57/2/2 54/2/2 58/2/2
f 55/2/2 56/2/2 59/2/2
f 59/2/2 56/2/2 60/2/2
f 57/1/2 58/1/2 61/1/2
f 61/1/2 58/1/2 62/1/2
f 59/1/2 60/1/2 63/1/2
f 63/1/2 60/1/2 64/1/2
f 61/3/2 62/3/2 65/3/2
f 65/3/2 62/3/2 66/3/2
f 63/3/2 64/3/2 67/3/2
f 67/3/2 64/3/2 68/3/2
f 74/1/3 72/1/3 71/1/3
f 75/1/3 72/1/3 74/1/3
f 76/1/3 70/1/3 69/1/3
f 77/1/3 70/1/3 76/1/3
f 78/1/3 72/1/3 75/1/3
f 79/1/3 72/1/3 78/1/3
f 80/2/3 77/2/3 76/2/3
f 80/1/3 76/1/3 69/1/3
f 81/2/3 77/2/3 80/2/3
f 82/1/3 74/1/3 71/1/3
f 83/1/3 74/1/3 82/1/3
f 84/2/3 79/2/3 78/2/3
f 85/1/3 72/1/3 79/1/3
f 85/2/3 79/2/3 84/2/3
f 86/1/3 82/1/3 71/1/3
f 86/2/3 83/2/3 82/2/3
f 87/1/3 74/1/3 83/1/3
f 87/2/3 83/2/3 86/2/3
f 88/1/3 86/1/3 71/1/3
f 88/1/3 87/1/3 86/1/3
f 89/1/3 74/1/3 87/1/3
f 89/1/3 87/1/3 88/1/3
f 90/1/3 88/1/3 71/1/3
f 90/2/3 89/2/3 88/2/3
f 91/1/3 74/1/3 89/1/3
f 91/2/3 89/2/3 90/2/3
f 92/1/3 81/1/3 80/1/3
f 92/1/3 80/1/3 69/1/3
f 93/1/3 81/1/3 92/1/3
f 94/2/3 93/2/3 92/2/3
f 95/1/3 81/1/3 93/1/3
f 95/2/3 93/2/3 94/2/3
f 96/1/3 90/1/3 71/1/3
f 96/1/3 91/1/3 90/1/3
f 97/1/3 91/1/3 96/1/3
f 98/2/3 97/2/3 96/2/3
f 99/1/3 91/1/3 97/1/3
f 99/2/3 97/2/3 98/2/3
f 100/1/3 74/1/3 91/1/3
f 100/1/3 91/1/3 99/1/3
f 101/1/3 85/1/3 84/1/3
f 102/1/3 99/1/3 98/1/3
f 102/1/3 101/1/3 100/1/3
f 102/1/3 100/1/3 99/1/3
f 103/1/3 101/1/3 102/1/3
f 104/1/3 95/1/3 94/1/3
f 105/1/3 81/1/3 95/1/3
f 105/1/3 95/1/3 104/1/3
f 106/1/3 102/1/3 98/1/3
f 107/2/3 103/2/3 102/2/3
f 107/1/3 102/1/3 106/1/3
f 108/1/3 101/1/3 103/1/3
f 108/2/3 103/2/3 107/2/3
f 109/3/3 73/3/3 72/3/3
f 109/1/3 101/1/3 108/1/3
f 109/1/3 85/1/3 101/1/3
f 109/1/3 72/1/3 85/1/3
f 110/3/3 73/3/3 109/3/3
f 113/1/3 112/1/3 111/1/3
f 114/1/3 112/1/3 113/1/3
f 115/1/3 112/1/3 114/1/3
f 116/1/3 115/1/3 114/1/3
f 117/1/3 116/1/3 114/1/3
f 118/1/3 116/1/3 117/1/3
f 122/1/3 120/1/3 119/1/3
f 123/1/3 120/1/3 122/1/3
f 124/1/3 120/1/3 123/1/3
f 125/1/3 120/1/3 124/1/3
f 126/1/3 122/1/3 119/1/3
f 127/1/3 122/1/3 126/1/3
f 128/2/3 125/2/3 124/2/3
f 129/1/3 120/1/3 125/1/3
f 129/2/3 125/2/3 128/2/3
f 130/1/3 126/1/3 119/1/3
f 130/2/3 127/2/3 126/2/3
f 131/1/3 122/1/3 127/1/3
f 131/2/3 127/2/3 130/2/3
f 132/1/3 130/1/3 119/1/3
f 132/1/3 131/1/3 130/1/3
f 133/1/3 122/1/3 131/1/3
f 133/1/3 131/1/3 132/1/3
f 134/1/3 132/1/3 119/1/3
f 134/2/3 133/2/3 132/2/3
f 135/1/3 122/1/3 133/1/3
f 135/2/3 133/2/3 134/2/3
f 136/1/3 134/1/3 119/1/3
f 136/1/3 135/1/3 134/1/3
f 137/1/3 135/1/3 136/1/3
f 138/2/3 137/2/3 136/2/3
f 139/1/3 135/1/3 137/1/3
f 139/2/3 137/2/3 138/2/3
f 140/1/3 122/1/3 135/1/3
f 140/1/3 135/1/3 139/1/3
f 141/1/3 129/1/3 128/1/3
f 142/1/3 139/1/3 138/1/3
f 142/1/3 141/1/3 140/1/3
f 142/1/3 140/1/3 139/1/3
f 143/1/3 141/1/3 142/1/3
f 144/1/3 142/1/3 138/1/3
f 145/2/3 143/2/3 142/2/3
f 145/1/3 142/1/3 144/1/3
f 146/1/3 141/1/3 143/1/3
f 146/2/3 143/2/3 145/2/3
f 147/3/3 121/3/3 120/3/3
f 147/1/3 141/1/3 146/1/3
f 147/1/3 129/1/3 141/1/3
f 147/1/3 120/1/3 129/1/3
f 148/3/3 121/3/3 147/3/3
f 149/1/4 150/1/4 152/1/4
f 152/1/4 150/1/4 153/1/4
f 153/1/4 150/1/4 154/1/4
f 154/1/4 150/1/4 155/1/4
f 149/1/4 152/1/4 156/1/4
f 156/1/4 152/1/4 157/1/4
f 154/2/4 155/2/4 158/2/4
f 155/1/4 150/1/4 159/1/4
f 158/2/4 155/2/4 159/2/4
f 149/1/4 156/1/4 160/1/4
f 156/2/4 157/2/4 160/2/4
f 157/1/4 152/1/4 161/1/4
f 160/2/4 157/2/4 161/2/4
f 149/1/4 160/1/4 162/1/4
f 160/1/4 161/1/4 162/1/4
f 161/1/4 152/1/4 163/1/4
f 162/1/4 161/1/4 163/1/4
f 149/1/4 162/1/4 164/1/4
f 162/2/4 163/2/4 164/2/4
f 163/1/4 152/1/4 165/1/4
f 164/2/4 163/2/4 165/2/4
f 149/1/4 164/1/4 166/1/4
f 164/1/4 165/1/4 166/1/4
f 166/1/4 165/1/4 167/1/4
f 166/2/4 167/2/4 168/2/4
f 167/1/4 165/1/4 169/1/4
f 168/2/4 167/2/4 169/2/4
f 165/1/4 152/1/4 170/1/4
f 169/1/4 165/1/4 170/1/4
f 158/1/4 159/1/4 171/1/4
f 168/1/4 169/1/4 172/1/4
f 170/1/4 171/1/4 172/1/4
f 169/1/4 170/1/4 172/1/4
f 172/1/4 171/1/4 173/1/4
f 168/1/4 172/1/4 174/1/4
f 172/2/4 173/2/4 175/2/4
f 174/1/4 172/1/4 175/1/4
f 173/1/4 171/1/4 176/1/4
f 175/2/4 173/2/4 176/2/4
f 150/3/4 151/3/4 177/3/4
f 176/1/4 171/1/4 177/1/4
f 171/1/4 159/1/4 177/1/4
f 159/1/4 150/1/4 177/1/4
f 177/3/4 151/3/4 178/3/4
f 179/1/4 180/1/4 181/1/4
f 181/1/4 180/1/4 182/1/4
f 182/1/4 180/1/4 183/1/4
f 182/1/4 183/1/4 184/1/4
f 182/1/4 184/1/4 185/1/4
f 185/1/4 184/1/4 186/1/4
f 189/1/4 190/1/4 192/1/4
f 192/1/4 190/1/4 193/1/4
f 187/1/4 188/1/4 194/1/4
f 194/1/4 188/1/4 195/1/4
f 193/1/4 190/1/4 196/1/4
f 196/1/4 190/1/4 197/1/4
f 194/2/4 195/2/4 198/2/4
f 187/1/4 194/1/4 198/1/4
f 198/2/4 195/2/4 199/2/4
f 189/1/4 192/1/4 200/1/4
f 200/1/4 192/1/4 201/1/4
f 196/2/4 197/2/4 202/2/4
f 197/1/4 190/1/4 203/1/4
f 202/2/4 197/2/4 203/2/4
f 189/1/4 200/1/4 204/1/4
f 200/2/4 201/2/4 204/2/4
f 201/1/4 192/1/4 205/1/4
f 204/2/4 201/2/4 205/2/4
f 189/1/4 204/1/4 206/1/4
f 204/1/4 205/1/4 206/1/4
f 205/1/4 192/1/4 207/1/4
f 206/1/4 205/1/4 207/1/4
f 189/1/4 206/1/4 208/1/4
f 206/2/4 207/2/4 208/2/4
f 207/1/4 192/1/4 209/1/4
f 208/2/4 207/2/4 209/2/4
f 198/1/4 199/1/4 210/1/4
f 187/1/4 198/1/4 210/1/4
f 210/1/4 199/1/4 211/1/4
f 210/2/4 211/2/4 212/2/4
f 211/1/4 199/1/4 213/1/4
f 212/2/4 211/2/4 213/2/4
f 189/1/4 208/1/4 214/1/4
f 208/1/4 209/1/4 214/1/4
f 214/1/4 209/1/4 215/1/4
f 214/2/4 215/2/4 216/2/4
f 215/1/4 209/1/4 217/1/4
f 216/2/4 215/2/4 217/2/4
f 209/1/4 192/1/4 218/1/4
f 217/1/4 209/1/4 218/1/4
f 202/1/4 203/1/4 219/1/4
f 216/1/4 217/1/4 220/1/4
f 218/1/4 219/1/4 220/1/4
f 217/1/4 218/1/4 220/1/4
f 220/1/4 219/1/4 221/1/4
f 212/1/4 213/1/4 222/1/4
f 213/1/4 199/1/4 223/1/4
f 222/1/4 213/1/4 223/1/4
f 216/1/4 220/1/4 224/1/4
f 220/2/4 221/2/4 225/2/4
f 224/1/4 220/1/4 225/1/4
f 221/1/4 219/1/4 226/1/4
f 225/2/4 221/2/4 226/2/4
f 190/3/4 191/3/4 227/3/4
f 226/1/4 219/1/4 227/1/4
f 219/1/4 203/1/4 227/1/4
f 203/1/4 190/1/4 227/1/4
f 227/3/4 191/3/4 228/3/4
f 233/1/5 230/1/5 229/1/5
f 233/2/5 231/2/5 230/2/5
f 234/1/5 232/1/5 231/1/5
f 234/2/5 231/2/5 233/2/5
f 235/1/5 233/1/5 229/1/5
f 235/1/5 234/1/5 233/1/5
f 236/1/5 234/1/5 235/1/5
f 237/1/5 232/1/5 234/1/5
f 237/1/5 234/1/5 236/1/5
f 238/1/5 232/1/5 237/1/5
f 239/2/5 236/2/5 235/2/5
f 239/1/5 235/1/5 229/1/5
f 240/1/5 237/1/5 236/1/5
f 240/2/5 236/2/5 239/2/5
f 241/2/5 238/2/5 237/2/5
f 241/1/5 237/1/5 240/1/5
f 242/1/5 232/1/5 238/1/5
f 242/2/5 238/2/5 241/2/5
f 243/1/5 241/1/5 240/1/5
f 243/1/5 240/1/5 239/1/5
f 243/1/5 242/1/5 241/1/5
f 243/1/5 239/1/5 229/1/5
f 244/1/5 242/1/5 243/1/5
f 245/1/5 242/1/5 244/1/5
f 246/1/5 232/1/5 242/1/5
f 246/1/5 242/1/5 245/1/5
f 247/1/5 243/1/5 229/1/5
f 247/2/5 244/2/5 243/2/5
f 248/1/5 245/1/5 244/1/5
f 248/2/5 244/2/5 247/2/5
f 249/2/5 246/2/5 245/2/5
f 249/1/5 245/1/5 248/1/5
f 250/1/5 232/1/5 246/1/5
f 250/2/5 246/2/5 249/2/5
f 251/1/5 249/1/5 248/1/5
f 251/1/5 248/1/5 247/1/5
f 251/1/5 250/1/5 249/1/5
f 252/1/5 250/1/5 251/1/5
f 253/1/5 247/1/5 229/1/5
f 253/1/5 251/1/5 247/1/5
f 254/2/5 252/2/5 251/2/5
f 254/1/5 251/1/5 253/1/5
f 255/1/5 250/1/5 252/1/5
f 255/2/5 252/2/5 254/2/5
f 256/1/5 232/1/5 250/1/5
f 256/1/5 250/1/5 255/1/5
f 261/1/5 258/1/5 257/1/5
f 262/2/5 259/2/5 258/2/5
f 262/1/5 258/1/5 261/1/5
f 263/1/5 260/1/5 259/1/5
f 263/2/5 259/2/5 262/2/5
f 264/1/5 260/1/5 263/1/5
f 269/1/5 266/1/5 265/1/5
f 270/2/5 267/2/5 266/2/5
f 270/1/5 266/1/5 269/1/5
f 271/1/5 268/1/5 267/1/5
f 271/2/5 267/2/5 270/2/5
f 272/1/5 268/1/5 271/1/5
f 277/1/5 274/1/5 273/1/5
f 278/2/5 275/2/5 274/2/5
f 278/1/5 274/1/5 277/1/5
f 279/1/5 276/1/5 275/1/5
f 279/2/5 275/2/5 278/2/5
f 280/1/5 276/1/5 279/1/5
f 285/1/5 282/1/5 281/1/5
f 286/2/5 283/2/5 282/2/5
f 286/1/5 282/1/5 285/1/5
f 287/1/5 284/1/5 283/1/5
f 287/2/5 283/2/5 286/2/5
f 288/1/5 284/1/5 287/1/5
f 289/1/6 290/1/6 293/1/6
f 290/2/6 291/2/6 294/2/6
f 293/1/6 290/1/6 294/1/6
f 291/1/6 292/1/6 295/1/6
f 294/2/6 291/2/6 295/2/6
f 295/1/6 292/1/6 296/1/6
f 297/1/6 298/1/6 301/1/6
f 298/2/6 299/2/6 302/2/6
f 301/1/6 298/1/6 302/1/6
f 299/1/6 300/1/6 303/1/6
f 302/2/6 299/2/6 303/2/6
f 303/1/6 300/1/6 304/1/6
f 305/1/6 306/1/6 309/1/6
f 307/1/6 308/1/6 309/1/6
f 306/1/6 307/1/6 309/1/6
f 309/1/6 308/1/6 310/1/6
f 310/1/6 308/1/6 311/1/6
f 311/1/6 308/1/6 312/1/6
f 305/1/6 309/1/6 313/1/6
f 309/2/6 310/2/6 313/2/6
f 310/1/6 311/1/6 314/1/6
f 313/2/6 310/2/6 314/2/6
f 311/2/6 312/2/6 315/2/6
f 314/1/6 311/1/6 315/1/6
f 312/1/6 308/1/6 316/1/6
f 315/2/6 312/2/6 316/2/6
f 314/1/6 315/1/6 317/1/6
f 313/1/6 314/1/6 317/1/6
f 315/1/6 316/1/6 317/1/6
f 305/1/6 313/1/6 317/1/6
f 317/1/6 316/1/6 318/1/6
f 318/1/6 316/1/6 319/1/6
f 316/1/6 308/1/6 320/1/6
f 319/1/6 316/1/6 320/1/6
f 305/1/6 317/1/6 321/1/6
f 317/3/6 318/3/6 321/3/6
f 318/1/6 319/1/6 322/1/6
f 321/3/6 318/3/6 322/3/6
f 319/3/6 320/3/6 323/3/6
f 322/1/6 319/1/6 323/1/6
f 320/1/6 308/1/6 324/1/6
f 323/3/6 320/3/6 324/3/6
f 305/1/6 321/1/6 325/1/6
f 322/1/6 323/1/6 325/1/6
f 323/1/6 324/1/6 325/1/6
f 321/1/6 322/1/6 325/1/6
f 325/1/6 324/1/6 326/1/6
f 324/1/6 308/1/6 327/1/6
f 326/1/6 324/1/6 327/1/6
f 327/1/6 308/1/6 328/1/6
f 325/2/6 326/2/6 329/2/6
f 305/1/6 325/1/6 329/1/6
f 326/1/6 327/1/6 330/1/6
f 329/2/6 326/2/6 330/2/6
f 327/2/6 328/2/6 331/2/6
f 330/1/6 327/1/6 331/1/6
f 328/1/6 308/1/6 332/1/6
f 331/2/6 328/2/6 332/2/6
f 330/1/6 331/1/6 333/1/6
f 329/1/6 330/1/6 333/1/6
f 331/1/6 332/1/6 333/1/6
f 305/1/6 329/1/6 333/1/6
f 333/1/6 332/1/6 334/1/6
f 334/1/6 332/1/6 335/1/6
f 332/1/6 308/1/6 336/1/6
f 335/1/6 332/1/6 336/1/6
f 305/1/6 333/1/6 337/1/6
f 333/2/6 334/2/6 337/2/6
f 334/1/6 335/1/6 338/1/6
f 337/2/6 334/2/6 338/2/6
f 335/2/6 336/2/6 339/2/6
f 338/1/6 335/1/6 339/1/6
f 336/1/6 308/1/6 340/1/6
f 339/2/6 336/2/6 340/2/6
f 338/1/6 339/1/6 341/1/6
f 337/1/6 338/1/6 341/1/6
f 339/1/6 340/1/6 341/1/6
f 341/1/6 340/1/6 342/1/6
f 342/1/6 340/1/6 343/1/6
f 343/1/6 340/1/6 344/1/6
f 337/1/6 341/1/6 345/1/6
f 341/3/6 342/3/6 345/3/6
f 342/1/6 343/1/6 346/1/6
f 345/3/6 342/3/6 346/3/6
f 343/3/6 344/3/6 347/3/6
f 346/1/6 343/1/6 347/1/6
f 344/1/6 340/1/6 348/1/6
f 347/3/6 344/3/6 348/3/6
f 346/1/6 347/1/6 349/1/6
f 345/1/6 346/1/6 349/1/6
f 347/1/6 348/1/6 349/1/6
f 337/1/6 345/1/6 349/1/6
f 349/1/6 348/1/6 350/1/6
f 350/1/6 348/1/6 351/1/6
f 348/1/6 340/1/6 352/1/6
f 351/1/6 348/1/6 352/1/6
f 337/1/6 349/1/6 353/1/6
f 349/2/6 350/2/6 353/2/6
f 350/1/6 351/1/6 354/1/6
f 353/2/6 350/2/6 354/2/6
f 351/2/6 352/2/6 355/2/6
f 354/1/6 351/1/6 355/1/6
f 352/1/6 340/1/6 356/1/6
f 355/2/6 352/2/6 356/2/6
f 305/1/6 337/1/6 357/1/6
f 337/1/6 353/1/6 357/1/6
f 355/1/6 356/1/6 357/1/6
f 353/1/6 354/1/6 357/1/6
f 354/1/6 355/1/6 357/1/6
f 356/1/6 340/1/6 358/1/6
f 357/1/6 356/1/6 358/1/6
f 340/1/6 308/1/6 358/1/6
f 358/1/6 308/1/6 359/1/6
f 359/1/6 308/1/6 360/1/6
f 361/1/6 362/1/6 363/1/6
f 363/1/6 362/1/6 364/1/6
f 365/1/6 366/1/6 367/1/6
f 367/1/6 366/1/6 368/1/6
f 369/3/6 370/3/6 371/3/6
f 371/3/6 370/3/6 372/3/6
f 373/3/6 374/3/6 375/3/6
f 375/3/6 374/3/6 376/3/6
