# MagicaVoxel @ Ephtracy

# group
g sword

# material
mtllib sword.mtl
usemtl palette

# normals
vn -1 0 0
vn 1 0 0
vn 0 0 1
vn 0 0 -1
vn 0 -1 0
vn 0 1 0

# texcoords
vt 0.537109 0.5
vt 0.958984 0.5
vt 0.962891 0.5
vt 0.966797 0.5
vt 0.970703 0.5

# verts
v -50 2 0.5
v -50 2 -0.5
v -50 3 1.5
v -50 3 0.5
v -50 3 -0.5
v -50 3 -1.5
v -50 4 2.5
v -50 4 1.5
v -50 4 -1.5
v -50 4 -2.5
v -50 5 2.5
v -50 5 1.5
v -50 5 -1.5
v -50 5 -2.5
v -50 6 1.5
v -50 6 0.5
v -50 6 -0.5
v -50 6 -1.5
v -50 7 0.5
v -50 7 -0.5
v -49 2 1.5
v -49 2 0.5
v -49 2 -0.5
v -49 2 -1.5
v -49 3 2.5
v -49 3 1.5
v -49 3 0.5
v -49 3 -0.5
v -49 3 -1.5
v -49 3 -2.5
v -49 4 2.5
v -49 4 1.5
v -49 4 -1.5
v -49 4 -2.5
v -49 5 2.5
v -49 5 1.5
v -49 5 -1.5
v -49 5 -2.5
v -49 6 2.5
v -49 6 1.5
v -49 6 0.5
v -49 6 -0.5
v -49 6 -1.5
v -49 6 -2.5
v -49 7 1.5
v -49 7 0.5
v -49 7 -0.5
v -49 7 -1.5
v -25 2 0.5
v -25 2 -0.5
v -25 3 1.5
v -25 3 0.5
v -25 3 -0.5
v -25 3 -1.5
v -25 4 2.5
v -25 4 1.5
v -25 4 0.5
v -25 4 -0.5
v -25 4 -1.5
v -25 4 -2.5
v -25 5 2.5
v -25 5 1.5
v -25 5 0.5
v -25 5 -0.5
v -25 5 -1.5
v -25 5 -2.5
v -25 6 1.5
v -25 6 0.5
v -25 6 -0.5
v -25 6 -1.5
v -25 7 0.5
v -25 7 -0.5
v -24 2 1.5
v -24 2 0.5
v -24 2 -0.5
v -24 2 -1.5
v -24 3 1.5
v -24 3 0.5
v -24 3 -0.5
v -24 3 -1.5
v -24 6 1.5
v -24 6 0.5
v -24 6 -0.5
v -24 6 -1.5
v -24 7 1.5
v -24 7 0.5
v -24 7 -0.5
v -24 7 -1.5
v -23 2 2.5
v -23 2 1.5
v -23 2 -1.5
v -23 2 -2.5
v -23 3 2.5
v -23 3 1.5
v -23 3 -1.5
v -23 3 -2.5
v -23 6 2.5
v -23 6 1.5
v -23 6 -1.5
v -23 6 -2.5
v -23 7 2.5
v -23 7 1.5
v -23 7 -1.5
v -23 7 -2.5
v -22 3 2.5
v -22 3 1.5
v -22 3 -1.5
v -22 3 -2.5
v -22 6 2.5
v -22 6 1.5
v -22 6 -1.5
v -22 6 -2.5
v -21 2 0.5
v -21 2 -0.5
v -21 3 0.5
v -21 3 -0.5
v -21 6 0.5
v -21 6 -0.5
v -21 7 0.5
v -21 7 -0.5
v -20 3 2.5
v -20 3 1.5
v -20 3 -1.5
v -20 3 -2.5
v -20 4 2.5
v -20 4 1.5
v -20 4 -1.5
v -20 4 -2.5
v -20 5 2.5
v -20 5 1.5
v -20 5 -1.5
v -20 5 -2.5
v -20 6 2.5
v -20 6 1.5
v -20 6 -1.5
v -20 6 -2.5
v -49 2 0.5
v -49 2 -0.5
v -49 3 0.5
v -49 3 -0.5
v -49 4 2.5
v -49 4 1.5
v -49 4 -1.5
v -49 4 -2.5
v -49 5 2.5
v -49 5 1.5
v -49 5 -1.5
v -49 5 -2.5
v -49 6 0.5
v -49 6 -0.5
v -49 7 0.5
v -49 7 -0.5
v -48 2 1.5
v -48 2 0.5
v -48 2 -0.5
v -48 2 -1.5
v -48 3 2.5
v -48 3 1.5
v -48 3 0.5
v -48 3 -0.5
v -48 3 -1.5
v -48 3 -2.5
v -48 4 2.5
v -48 4 1.5
v -48 4 0.5
v -48 4 -0.5
v -48 4 -1.5
v -48 4 -2.5
v -48 5 2.5
v -48 5 1.5
v -48 5 0.5
v -48 5 -0.5
v -48 5 -1.5
v -48 5 -2.5
v -48 6 2.5
v -48 6 1.5
v -48 6 0.5
v -48 6 -0.5
v -48 6 -1.5
v -48 6 -2.5
v -48 7 1.5
v -48 7 0.5
v -48 7 -0.5
v -48 7 -1.5
v -23 2 0.5
v -23 2 -0.5
v -23 3 0.5
v -23 3 -0.5
v -23 4 2.5
v -23 4 1.5
v -23 4 -1.5
v -23 4 -2.5
v -23 5 2.5
v -23 5 1.5
v -23 5 -1.5
v -23 5 -2.5
v -23 6 0.5
v -23 6 -0.5
v -23 7 0.5
v -23 7 -0.5
v -22 2 1.5
v -22 2 0.5
v -22 2 -0.5
v -22 2 -1.5
v -22 3 1.5
v -22 3 0.5
v -22 3 -0.5
v -22 3 -1.5
v -22 6 1.5
v -22 6 0.5
v -22 6 -0.5
v -22 6 -1.5
v -22 7 1.5
v -22 7 0.5
v -22 7 -0.5
v -22 7 -1.5
v -21 2 2.5
v -21 2 1.5
v -21 2 -1.5
v -21 2 -2.5
v -21 3 1.5
v -21 3 -1.5
v -21 4 2.5
v -21 4 1.5
v -21 4 -1.5
v -21 4 -2.5
v -21 5 2.5
v -21 5 1.5
v -21 5 -1.5
v -21 5 -2.5
v -21 6 1.5
v -21 6 -1.5
v -21 7 2.5
v -21 7 1.5
v -21 7 -1.5
v -21 7 -2.5
v -19 2 0.5
v -19 2 -0.5
v -19 3 2.5
v -19 3 1.5
v -19 3 0.5
v -19 3 -0.5
v -19 3 -1.5
v -19 3 -2.5
v -19 6 2.5
v -19 6 1.5
v -19 6 0.5
v -19 6 -0.5
v -19 6 -1.5
v -19 6 -2.5
v -19 7 0.5
v -19 7 -0.5
v -18 3 1.5
v -18 3 0.5
v -18 3 -0.5
v -18 3 -1.5
v -18 4 0.5
v -18 4 -0.5
v -18 5 0.5
v -18 5 -0.5
v -18 6 1.5
v -18 6 0.5
v -18 6 -0.5
v -18 6 -1.5
v 47 5 0.5
v 47 5 -0.5
v 47 6 0.5
v 47 6 -0.5
v 49 4 0.5
v 49 4 -0.5
v 49 5 0.5
v 49 5 -0.5
v 50 3 0.5
v 50 3 -0.5
v 50 4 0.5
v 50 4 -0.5
v -50 4 2.5
v -50 5 2.5
v -49 3 2.5
v -49 4 2.5
v -49 5 2.5
v -49 6 2.5
v -48 3 2.5
v -48 4 2.5
v -48 5 2.5
v -48 6 2.5
v -25 4 2.5
v -25 5 2.5
v -23 2 2.5
v -23 3 2.5
v -23 4 2.5
v -23 5 2.5
v -23 6 2.5
v -23 7 2.5
v -22 3 2.5
v -22 6 2.5
v -21 2 2.5
v -21 4 2.5
v -21 5 2.5
v -21 7 2.5
v -20 3 2.5
v -20 4 2.5
v -20 5 2.5
v -20 6 2.5
v -19 3 2.5
v -19 6 2.5
v -50 3 1.5
v -50 4 1.5
v -50 5 1.5
v -50 6 1.5
v -49 2 1.5
v -49 3 1.5
v -49 4 1.5
v -49 5 1.5
v -49 6 1.5
v -49 7 1.5
v -48 2 1.5
v -48 3 1.5
v -48 4 1.5
v -48 5 1.5
v -48 6 1.5
v -48 7 1.5
v -25 3 1.5
v -25 4 1.5
v -25 5 1.5
v -25 6 1.5
v -24 2 1.5
v -24 3 1.5
v -24 6 1.5
v -24 7 1.5
v -23 2 1.5
v -23 3 1.5
v -23 4 1.5
v -23 5 1.5
v -23 6 1.5
v -23 7 1.5
v -22 3 1.5
v -22 6 1.5
v -21 3 1.5
v -21 4 1.5
v -21 5 1.5
v -21 6 1.5
v -20 3 1.5
v -20 4 1.5
v -20 5 1.5
v -20 6 1.5
v -19 3 1.5
v -19 6 1.5
v -18 3 1.5
v -18 6 1.5
v -50 2 0.5
v -50 3 0.5
v -50 6 0.5
v -50 7 0.5
v -49 2 0.5
v -49 3 0.5
v -49 6 0.5
v -49 7 0.5
v -48 3 0.5
v -48 4 0.5
v -48 5 0.5
v -48 6 0.5
v -25 2 0.5
v -25 3 0.5
v -25 4 0.5
v -25 5 0.5
v -25 6 0.5
v -25 7 0.5
v -24 2 0.5
v -24 3 0.5
v -24 6 0.5
v -24 7 0.5
v -21 2 0.5
v -21 3 0.5
v -21 6 0.5
v -21 7 0.5
v -19 2 0.5
v -19 3 0.5
v -19 6 0.5
v -19 7 0.5
v -18 3 0.5
v -18 4 0.5
v -18 5 0.5
v -18 6 0.5
v 46 4 0.5
v 46 5 0.5
v 47 5 0.5
v 47 6 0.5
v 48 3 0.5
v 48 4 0.5
v 49 3 0.5
v 49 4 0.5
v 49 5 0.5
v 50 3 0.5
v 50 4 0.5
v -49 2 -0.5
v -49 3 -0.5
v -49 6 -0.5
v -49 7 -0.5
v -48 2 -0.5
v -48 3 -0.5
v -48 6 -0.5
v -48 7 -0.5
v -23 2 -0.5
v -23 3 -0.5
v -23 6 -0.5
v -23 7 -0.5
v -22 2 -0.5
v -22 3 -0.5
v -22 6 -0.5
v -22 7 -0.5
v -22 2 -1.5
v -22 3 -1.5
v -22 6 -1.5
v -22 7 -1.5
v -21 2 -1.5
v -21 3 -1.5
v -21 6 -1.5
v -21 7 -1.5
v -22 2 1.5
v -22 3 1.5
v -22 6 1.5
v -22 7 1.5
v -21 2 1.5
v -21 3 1.5
v -21 6 1.5
v -21 7 1.5
v -49 2 0.5
v -49 3 0.5
v -49 6 0.5
v -49 7 0.5
v -48 2 0.5
v -48 3 0.5
v -48 6 0.5
v -48 7 0.5
v -23 2 0.5
v -23 3 0.5
v -23 6 0.5
v -23 7 0.5
v -22 2 0.5
v -22 3 0.5
v -22 6 0.5
v -22 7 0.5
v -50 2 -0.5
v -50 3 -0.5
v -50 6 -0.5
v -50 7 -0.5
v -49 2 -0.5
v -49 3 -0.5
v -49 6 -0.5
v -49 7 -0.5
v -48 3 -0.5
v -48 4 -0.5
v -48 5 -0.5
v -48 6 -0.5
v -25 2 -0.5
v -25 3 -0.5
v -25 4 -0.5
v -25 5 -0.5
v -25 6 -0.5
v -25 7 -0.5
v -24 2 -0.5
v -24 3 -0.5
v -24 6 -0.5
v -24 7 -0.5
v -21 2 -0.5
v -21 3 -0.5
v -21 6 -0.5
v -21 7 -0.5
v -19 2 -0.5
v -19 3 -0.5
v -19 6 -0.5
v -19 7 -0.5
v -18 3 -0.5
v -18 4 -0.5
v -18 5 -0.5
v -18 6 -0.5
v 46 4 -0.5
v 46 5 -0.5
v 47 5 -0.5
v 47 6 -0.5
v 48 3 -0.5
v 48 4 -0.5
v 49 3 -0.5
v 49 4 -0.5
v 49 5 -0.5
v 50 3 -0.5
v 50 4 -0.5
v -50 3 -1.5
v -50 4 -1.5
v -50 5 -1.5
v -50 6 -1.5
v -49 2 -1.5
v -49 3 -1.5
v -49 4 -1.5
v -49 5 -1.5
v -49 6 -1.5
v -49 7 -1.5
v -48 2 -1.5
v -48 3 -1.5
v -48 4 -1.5
v -48 5 -1.5
v -48 6 -1.5
v -48 7 -1.5
v -25 3 -1.5
v -25 4 -1.5
v -25 5 -1.5
v -25 6 -1.5
v -24 2 -1.5
v -24 3 -1.5
v -24 6 -1.5
v -24 7 -1.5
v -23 2 -1.5
v -23 3 -1.5
v -23 4 -1.5
v -23 5 -1.5
v -23 6 -1.5
v -23 7 -1.5
v -22 3 -1.5
v -22 6 -1.5
v -21 3 -1.5
v -21 4 -1.5
v -21 5 -1.5
v -21 6 -1.5
v -20 3 -1.5
v -20 4 -1.5
v -20 5 -1.5
v -20 6 -1.5
v -19 3 -1.5
v -19 6 -1.5
v -18 3 -1.5
v -18 6 -1.5
v -50 4 -2.5
v -50 5 -2.5
v -49 3 -2.5
v -49 4 -2.5
v -49 5 -2.5
v -49 6 -2.5
v -48 3 -2.5
v -48 4 -2.5
v -48 5 -2.5
v -48 6 -2.5
v -25 4 -2.5
v -25 5 -2.5
v -23 2 -2.5
v -23 3 -2.5
v -23 4 -2.5
v -23 5 -2.5
v -23 6 -2.5
v -23 7 -2.5
v -22 3 -2.5
v -22 6 -2.5
v -21 2 -2.5
v -21 4 -2.5
v -21 5 -2.5
v -21 7 -2.5
v -20 3 -2.5
v -20 4 -2.5
v -20 5 -2.5
v -20 6 -2.5
v -19 3 -2.5
v -19 6 -2.5
v -23 2 2.5
v -21 2 2.5
v -49 2 1.5
v -48 2 1.5
v -24 2 1.5
v -23 2 1.5
v -22 2 1.5
v -21 2 1.5
v -50 2 0.5
v -49 2 0.5
v -48 2 0.5
v -25 2 0.5
v -24 2 0.5
v -23 2 0.5
v -22 2 0.5
v -21 2 0.5
v -19 2 0.5
v -50 2 -0.5
v -49 2 -0.5
v -48 2 -0.5
v -25 2 -0.5
v -24 2 -0.5
v -23 2 -0.5
v -22 2 -0.5
v -21 2 -0.5
v -19 2 -0.5
v -49 2 -1.5
v -48 2 -1.5
v -24 2 -1.5
v -23 2 -1.5
v -22 2 -1.5
v -21 2 -1.5
v -23 2 -2.5
v -21 2 -2.5
v -49 3 2.5
v -48 3 2.5
v -20 3 2.5
v -19 3 2.5
v -50 3 1.5
v -49 3 1.5
v -48 3 1.5
v -25 3 1.5
v -24 3 1.5
v -22 3 1.5
v -21 3 1.5
v -20 3 1.5
v -19 3 1.5
v -18 3 1.5
v -50 3 0.5
v -49 3 0.5
v -48 3 0.5
v -25 3 0.5
v -24 3 0.5
v -23 3 0.5
v -22 3 0.5
v -21 3 0.5
v -19 3 0.5
v -18 3 0.5
v 48 3 0.5
v 49 3 0.5
v 50 3 0.5
v -50 3 -0.5
v -49 3 -0.5
v -48 3 -0.5
v -25 3 -0.5
v -24 3 -0.5
v -23 3 -0.5
v -22 3 -0.5
v -21 3 -0.5
v -19 3 -0.5
v -18 3 -0.5
v 48 3 -0.5
v 49 3 -0.5
v 50 3 -0.5
v -50 3 -1.5
v -49 3 -1.5
v -48 3 -1.5
v -25 3 -1.5
v -24 3 -1.5
v -22 3 -1.5
v -21 3 -1.5
v -20 3 -1.5
v -19 3 -1.5
v -18 3 -1.5
v -49 3 -2.5
v -48 3 -2.5
v -20 3 -2.5
v -19 3 -2.5
v -50 4 2.5
v -49 4 2.5
v -25 4 2.5
v -23 4 2.5
v -21 4 2.5
v -20 4 2.5
v -50 4 1.5
v -49 4 1.5
v -48 4 1.5
v -25 4 1.5
v -23 4 1.5
v -21 4 1.5
v -20 4 1.5
v -48 4 0.5
v -25 4 0.5
v -48 4 -0.5
v -25 4 -0.5
v -50 4 -1.5
v -49 4 -1.5
v -48 4 -1.5
v -25 4 -1.5
v -23 4 -1.5
v -21 4 -1.5
v -20 4 -1.5
v -50 4 -2.5
v -49 4 -2.5
v -25 4 -2.5
v -23 4 -2.5
v -21 4 -2.5
v -20 4 -2.5
v -49 5 2.5
v -48 5 2.5
v -49 5 1.5
v -48 5 1.5
v -49 5 -1.5
v -48 5 -1.5
v -49 5 -2.5
v -48 5 -2.5
v -23 6 2.5
v -22 6 2.5
v -23 6 1.5
v -22 6 1.5
v -23 6 -1.5
v -22 6 -1.5
v -23 6 -2.5
v -22 6 -2.5
v -23 3 2.5
v -22 3 2.5
v -23 3 1.5
v -22 3 1.5
v -23 3 -1.5
v -22 3 -1.5
v -23 3 -2.5
v -22 3 -2.5
v -49 4 2.5
v -48 4 2.5
v -49 4 1.5
v -48 4 1.5
v 49 4 0.5
v 50 4 0.5
v 49 4 -0.5
v 50 4 -0.5
v -49 4 -1.5
v -48 4 -1.5
v -49 4 -2.5
v -48 4 -2.5
v -50 5 2.5
v -49 5 2.5
v -25 5 2.5
v -23 5 2.5
v -21 5 2.5
v -20 5 2.5
v -50 5 1.5
v -49 5 1.5
v -48 5 1.5
v -25 5 1.5
v -23 5 1.5
v -21 5 1.5
v -20 5 1.5
v -48 5 0.5
v -25 5 0.5
v 47 5 0.5
v 49 5 0.5
v -48 5 -0.5
v -25 5 -0.5
v 47 5 -0.5
v 49 5 -0.5
v -50 5 -1.5
v -49 5 -1.5
v -48 5 -1.5
v -25 5 -1.5
v -23 5 -1.5
v -21 5 -1.5
v -20 5 -1.5
v -50 5 -2.5
v -49 5 -2.5
v -25 5 -2.5
v -23 5 -2.5
v -21 5 -2.5
v -20 5 -2.5
v -49 6 2.5
v -48 6 2.5
v -20 6 2.5
v -19 6 2.5
v -50 6 1.5
v -49 6 1.5
v -48 6 1.5
v -25 6 1.5
v -24 6 1.5
v -22 6 1.5
v -21 6 1.5
v -20 6 1.5
v -19 6 1.5
v -18 6 1.5
v -50 6 0.5
v -49 6 0.5
v -48 6 0.5
v -25 6 0.5
v -24 6 0.5
v -23 6 0.5
v -22 6 0.5
v -21 6 0.5
v -19 6 0.5
v -18 6 0.5
v 47 6 0.5
v -50 6 -0.5
v -49 6 -0.5
v -48 6 -0.5
v -25 6 -0.5
v -24 6 -0.5
v -23 6 -0.5
v -22 6 -0.5
v -21 6 -0.5
v -19 6 -0.5
v -18 6 -0.5
v 47 6 -0.5
v -50 6 -1.5
v -49 6 -1.5
v -48 6 -1.5
v -25 6 -1.5
v -24 6 -1.5
v -22 6 -1.5
v -21 6 -1.5
v -20 6 -1.5
v -19 6 -1.5
v -18 6 -1.5
v -49 6 -2.5
v -48 6 -2.5
v -20 6 -2.5
v -19 6 -2.5
v -23 7 2.5
v -21 7 2.5
v -49 7 1.5
v -48 7 1.5
v -24 7 1.5
v -23 7 1.5
v -22 7 1.5
v -21 7 1.5
v -50 7 0.5
v -49 7 0.5
v -48 7 0.5
v -25 7 0.5
v -24 7 0.5
v -23 7 0.5
v -22 7 0.5
v -21 7 0.5
v -19 7 0.5
v -50 7 -0.5
v -49 7 -0.5
v -48 7 -0.5
v -25 7 -0.5
v -24 7 -0.5
v -23 7 -0.5
v -22 7 -0.5
v -21 7 -0.5
v -19 7 -0.5
v -49 7 -1.5
v -48 7 -1.5
v -24 7 -1.5
v -23 7 -1.5
v -22 7 -1.5
v -21 7 -1.5
v -23 7 -2.5
v -21 7 -2.5

# faces
f 4/1/1 2/1/1 1/1/1
f 5/1/1 2/1/1 4/1/1
f 8/1/1 4/1/1 3/1/1
f 8/1/1 6/1/1 5/1/1
f 8/1/1 5/1/1 4/1/1
f 9/1/1 6/1/1 8/1/1
f 11/1/1 8/1/1 7/1/1
f 11/1/1 10/1/1 9/1/1
f 11/1/1 9/1/1 8/1/1
f 12/1/1 10/1/1 11/1/1
f 13/1/1 10/1/1 12/1/1
f 14/1/1 10/1/1 13/1/1
f 15/1/1 13/1/1 12/1/1
f 16/1/1 13/1/1 15/1/1
f 17/1/1 13/1/1 16/1/1
f 18/1/1 13/1/1 17/1/1
f 19/1/1 17/1/1 16/1/1
f 20/1/1 17/1/1 19/1/1
f 26/1/1 22/1/1 21/1/1
f 27/1/1 22/1/1 26/1/1
f 28/1/1 24/1/1 23/1/1
f 29/1/1 24/1/1 28/1/1
f 31/1/1 26/1/1 25/1/1
f 32/1/1 26/1/1 31/1/1
f 33/1/1 30/1/1 29/1/1
f 34/1/1 30/1/1 33/1/1
f 39/1/1 36/1/1 35/1/1
f 40/1/1 36/1/1 39/1/1
f 43/1/1 38/1/1 37/1/1
f 44/1/1 38/1/1 43/1/1
f 45/1/1 41/1/1 40/1/1
f 46/1/1 41/1/1 45/1/1
f 47/1/1 43/1/1 42/1/1
f 48/1/1 43/1/1 47/1/1
f 52/1/1 50/1/1 49/1/1
f 53/1/1 50/1/1 52/1/1
f 56/1/1 52/1/1 51/1/1
f 57/1/1 52/1/1 56/1/1
f 58/1/1 54/1/1 53/1/1
f 59/1/1 54/1/1 58/1/1
f 61/1/1 56/1/1 55/1/1
f 62/1/1 56/1/1 61/1/1
f 65/1/1 60/1/1 59/1/1
f 66/1/1 60/1/1 65/1/1
f 67/1/1 63/1/1 62/1/1
f 68/1/1 63/1/1 67/1/1
f 69/1/1 65/1/1 64/1/1
f 70/1/1 65/1/1 69/1/1
f 71/1/1 69/1/1 68/1/1
f 72/1/1 69/1/1 71/1/1
f 77/1/1 74/1/1 73/1/1
f 78/1/1 74/1/1 77/1/1
f 79/1/1 76/1/1 75/1/1
f 80/1/1 76/1/1 79/1/1
f 85/1/1 82/1/1 81/1/1
f 86/1/1 82/1/1 85/1/1
f 87/1/1 84/1/1 83/1/1
f 88/1/1 84/1/1 87/1/1
f 93/1/1 90/1/1 89/1/1
f 94/1/1 90/1/1 93/1/1
f 95/1/1 92/1/1 91/1/1
f 96/1/1 92/1/1 95/1/1
f 101/1/1 98/1/1 97/1/1
f 102/1/1 98/1/1 101/1/1
f 103/1/1 100/1/1 99/1/1
f 104/1/1 100/1/1 103/1/1
f 109/1/1 106/1/1 105/1/1
f 110/1/1 106/1/1 109/1/1
f 111/1/1 108/1/1 107/1/1
f 112/1/1 108/1/1 111/1/1
f 115/1/1 114/1/1 113/1/1
f 116/1/1 114/1/1 115/1/1
f 119/1/1 118/1/1 117/1/1
f 120/1/1 118/1/1 119/1/1
f 125/1/1 122/1/1 121/1/1
f 126/1/1 122/1/1 125/1/1
f 127/1/1 124/1/1 123/1/1
f 128/1/1 124/1/1 127/1/1
f 133/1/1 130/1/1 129/1/1
f 134/1/1 130/1/1 133/1/1
f 135/1/1 132/1/1 131/1/1
f 136/1/1 132/1/1 135/1/1
f 137/1/2 138/1/2 139/1/2
f 139/1/2 138/1/2 140/1/2
f 141/1/2 142/1/2 145/1/2
f 145/1/2 142/1/2 146/1/2
f 143/1/2 144/1/2 147/1/2
f 147/1/2 144/1/2 148/1/2
f 149/1/2 150/1/2 151/1/2
f 151/1/2 150/1/2 152/1/2
f 153/1/2 154/1/2 158/1/2
f 158/1/2 154/1/2 159/1/2
f 155/1/2 156/1/2 160/1/2
f 160/1/2 156/1/2 161/1/2
f 158/1/2 159/1/2 163/1/2
f 157/1/2 158/1/2 163/1/2
f 163/1/2 159/1/2 164/1/2
f 164/1/2 159/1/2 165/1/2
f 161/1/2 162/1/2 166/1/2
f 160/1/2 161/1/2 166/1/2
f 166/1/2 162/1/2 167/1/2
f 167/1/2 162/1/2 168/1/2
f 169/1/2 170/1/2 175/1/2
f 170/1/2 171/1/2 175/1/2
f 175/1/2 171/1/2 176/1/2
f 176/1/2 171/1/2 177/1/2
f 173/1/2 174/1/2 178/1/2
f 172/1/2 173/1/2 178/1/2
f 178/1/2 174/1/2 179/1/2
f 179/1/2 174/1/2 180/1/2
f 176/1/2 177/1/2 181/1/2
f 181/1/2 177/1/2 182/1/2
f 178/1/2 179/1/2 183/1/2
f 183/1/2 179/1/2 184/1/2
f 185/1/2 186/1/2 187/1/2
f 187/1/2 186/1/2 188/1/2
f 189/1/2 190/1/2 193/1/2
f 193/1/2 190/1/2 194/1/2
f 191/1/2 192/1/2 195/1/2
f 195/1/2 192/1/2 196/1/2
f 197/1/2 198/1/2 199/1/2
f 199/1/2 198/1/2 200/1/2
f 201/1/2 202/1/2 205/1/2
f 205/1/2 202/1/2 206/1/2
f 203/1/2 204/1/2 207/1/2
f 207/1/2 204/1/2 208/1/2
f 209/1/2 210/1/2 213/1/2
f 213/1/2 210/1/2 214/1/2
f 211/1/2 212/1/2 215/1/2
f 215/1/2 212/1/2 216/1/2
f 217/1/2 218/1/2 221/1/2
f 219/1/2 220/1/2 222/1/2
f 217/1/2 221/1/2 223/1/2
f 223/1/2 221/1/2 224/1/2
f 222/1/2 220/1/2 225/1/2
f 225/1/2 220/1/2 226/1/2
f 227/1/2 228/1/2 231/1/2
f 229/1/2 230/1/2 232/1/2
f 227/1/2 231/1/2 233/1/2
f 233/1/2 231/1/2 234/1/2
f 232/1/2 230/1/2 235/1/2
f 235/1/2 230/1/2 236/1/2
f 237/1/2 238/1/2 241/1/2
f 241/1/2 238/1/2 242/1/2
f 239/1/2 240/1/2 245/1/2
f 245/1/2 240/1/2 246/1/2
f 243/1/2 244/1/2 249/1/2
f 249/1/2 244/1/2 250/1/2
f 247/1/2 248/1/2 251/1/2
f 251/1/2 248/1/2 252/1/2
f 253/1/2 254/1/2 257/1/2
f 255/1/2 256/1/2 258/1/2
f 253/1/2 257/1/2 259/1/2
f 258/1/2 256/1/2 260/1/2
f 253/1/2 259/1/2 261/1/2
f 261/1/2 259/1/2 262/1/2
f 260/1/2 256/1/2 263/1/2
f 263/1/2 256/1/2 264/1/2
f 265/3/2 266/3/2 267/3/2
f 267/3/2 266/3/2 268/3/2
f 269/3/2 270/3/2 271/3/2
f 271/3/2 270/3/2 272/3/2
f 273/3/2 274/3/2 275/3/2
f 275/3/2 274/3/2 276/3/2
f 280/1/3 278/1/3 277/1/3
f 281/1/3 278/1/3 280/1/3
f 283/1/3 280/1/3 279/1/3
f 284/1/3 280/1/3 283/1/3
f 285/1/3 282/1/3 281/1/3
f 286/1/3 282/1/3 285/1/3
f 291/1/3 288/1/3 287/1/3
f 292/1/3 288/1/3 291/1/3
f 295/1/3 290/1/3 289/1/3
f 296/1/3 294/1/3 293/1/3
f 297/1/3 295/1/3 289/1/3
f 297/1/3 296/1/3 295/1/3
f 298/1/3 296/1/3 297/1/3
f 299/1/3 296/1/3 298/1/3
f 300/1/3 294/1/3 296/1/3
f 300/1/3 296/1/3 299/1/3
f 302/1/3 299/1/3 298/1/3
f 303/1/3 299/1/3 302/1/3
f 305/1/3 302/1/3 301/1/3
f 305/1/3 304/1/3 303/1/3
f 305/1/3 303/1/3 302/1/3
f 306/1/3 304/1/3 305/1/3
f 312/1/3 308/1/3 307/1/3
f 313/1/3 308/1/3 312/1/3
f 314/1/3 310/1/3 309/1/3
f 315/1/3 310/1/3 314/1/3
f 317/1/3 312/1/3 311/1/3
f 318/1/3 312/1/3 317/1/3
f 319/1/3 314/1/3 313/1/3
f 320/1/3 314/1/3 319/1/3
f 321/1/3 316/1/3 315/1/3
f 322/1/3 316/1/3 321/1/3
f 324/3/3 320/3/3 319/3/3
f 325/3/3 320/3/3 324/3/3
f 328/1/3 324/1/3 323/1/3
f 329/1/3 326/1/3 325/1/3
f 331/1/3 328/1/3 327/1/3
f 332/1/3 324/1/3 328/1/3
f 332/1/3 328/1/3 331/1/3
f 333/1/3 324/1/3 332/1/3
f 334/1/3 330/1/3 329/1/3
f 334/1/3 329/1/3 325/1/3
f 335/1/3 330/1/3 334/1/3
f 336/1/3 330/1/3 335/1/3
f 337/1/3 333/1/3 332/1/3
f 337/1/3 335/1/3 334/1/3
f 337/1/3 334/1/3 333/1/3
f 338/1/3 335/1/3 337/1/3
f 343/1/3 340/1/3 339/1/3
f 344/1/3 340/1/3 343/1/3
f 345/1/3 342/1/3 341/1/3
f 346/1/3 342/1/3 345/1/3
f 349/1/3 348/1/3 347/1/3
f 350/1/3 348/1/3 349/1/3
f 355/1/3 352/1/3 351/1/3
f 356/1/3 352/1/3 355/1/3
f 357/1/3 354/1/3 353/1/3
f 358/1/3 354/1/3 357/1/3
f 364/2/3 360/2/3 359/2/3
f 365/2/3 360/2/3 364/2/3
f 366/2/3 362/2/3 361/2/3
f 367/2/3 362/2/3 366/2/3
f 369/1/3 364/1/3 363/1/3
f 370/1/3 364/1/3 369/1/3
f 371/1/3 368/1/3 367/1/3
f 372/1/3 368/1/3 371/1/3
f 377/1/3 374/1/3 373/1/3
f 378/1/3 374/1/3 377/1/3
f 379/1/3 376/1/3 375/1/3
f 380/1/3 376/1/3 379/1/3
f 385/5/3 382/5/3 381/5/3
f 385/4/3 383/4/3 382/4/3
f 386/3/3 384/3/3 383/3/3
f 386/4/3 383/4/3 385/4/3
f 387/3/3 386/3/3 385/3/3
f 387/3/3 384/3/3 386/3/3
f 388/3/3 384/3/3 387/3/3
f 389/5/3 385/5/3 381/5/3
f 390/3/3 387/3/3 385/3/3
f 390/5/3 385/5/3 389/5/3
f 391/4/3 390/4/3 389/4/3
f 392/3/3 387/3/3 390/3/3
f 392/4/3 390/4/3 391/4/3
f 393/3/3 387/3/3 392/3/3
f 394/3/3 392/3/3 391/3/3
f 395/3/3 392/3/3 394/3/3
f 400/1/3 397/1/3 396/1/3
f 401/1/3 397/1/3 400/1/3
f 402/1/3 399/1/3 398/1/3
f 403/1/3 399/1/3 402/1/3
f 408/1/3 405/1/3 404/1/3
f 409/1/3 405/1/3 408/1/3
f 410/1/3 407/1/3 406/1/3
f 411/1/3 407/1/3 410/1/3
f 416/1/3 413/1/3 412/1/3
f 417/1/3 413/1/3 416/1/3
f 418/1/3 415/1/3 414/1/3
f 419/1/3 415/1/3 418/1/3
f 420/1/4 421/1/4 424/1/4
f 424/1/4 421/1/4 425/1/4
f 422/1/4 423/1/4 426/1/4
f 426/1/4 423/1/4 427/1/4
f 428/1/4 429/1/4 432/1/4
f 432/1/4 429/1/4 433/1/4
f 430/1/4 431/1/4 434/1/4
f 434/1/4 431/1/4 435/1/4
f 436/1/4 437/1/4 440/1/4
f 440/1/4 437/1/4 441/1/4
f 438/1/4 439/1/4 442/1/4
f 442/1/4 439/1/4 443/1/4
f 444/1/4 445/1/4 448/1/4
f 448/1/4 445/1/4 449/1/4
f 446/1/4 447/1/4 450/1/4
f 450/1/4 447/1/4 451/1/4
f 452/2/4 453/2/4 457/2/4
f 457/2/4 453/2/4 458/2/4
f 454/2/4 455/2/4 459/2/4
f 459/2/4 455/2/4 460/2/4
f 456/1/4 457/1/4 462/1/4
f 462/1/4 457/1/4 463/1/4
f 460/1/4 461/1/4 464/1/4
f 464/1/4 461/1/4 465/1/4
f 466/1/4 467/1/4 470/1/4
f 470/1/4 467/1/4 471/1/4
f 468/1/4 469/1/4 472/1/4
f 472/1/4 469/1/4 473/1/4
f 474/5/4 475/5/4 478/5/4
f 475/4/4 476/4/4 478/4/4
f 476/3/4 477/3/4 479/3/4
f 478/4/4 476/4/4 479/4/4
f 478/3/4 479/3/4 480/3/4
f 479/3/4 477/3/4 480/3/4
f 480/3/4 477/3/4 481/3/4
f 474/5/4 478/5/4 482/5/4
f 478/3/4 480/3/4 483/3/4
f 482/5/4 478/5/4 483/5/4
f 482/4/4 483/4/4 484/4/4
f 483/3/4 480/3/4 485/3/4
f 484/4/4 483/4/4 485/4/4
f 485/3/4 480/3/4 486/3/4
f 484/3/4 485/3/4 487/3/4
f 487/3/4 485/3/4 488/3/4
f 489/1/4 490/1/4 494/1/4
f 494/1/4 490/1/4 495/1/4
f 491/1/4 492/1/4 496/1/4
f 496/1/4 492/1/4 497/1/4
f 493/1/4 494/1/4 499/1/4
f 499/1/4 494/1/4 500/1/4
f 495/1/4 496/1/4 501/1/4
f 501/1/4 496/1/4 502/1/4
f 497/1/4 498/1/4 503/1/4
f 503/1/4 498/1/4 504/1/4
f 501/3/4 502/3/4 506/3/4
f 506/3/4 502/3/4 507/3/4
f 505/1/4 506/1/4 510/1/4
f 507/1/4 508/1/4 511/1/4
f 509/1/4 510/1/4 513/1/4
f 510/1/4 506/1/4 514/1/4
f 513/1/4 510/1/4 514/1/4
f 514/1/4 506/1/4 515/1/4
f 511/1/4 512/1/4 516/1/4
f 507/1/4 511/1/4 516/1/4
f 516/1/4 512/1/4 517/1/4
f 517/1/4 512/1/4 518/1/4
f 514/1/4 515/1/4 519/1/4
f 516/1/4 517/1/4 519/1/4
f 515/1/4 516/1/4 519/1/4
f 519/1/4 517/1/4 520/1/4
f 521/1/4 522/1/4 525/1/4
f 525/1/4 522/1/4 526/1/4
f 523/1/4 524/1/4 527/1/4
f 527/1/4 524/1/4 528/1/4
f 529/1/4 530/1/4 531/1/4
f 531/1/4 530/1/4 532/1/4
f 533/1/4 534/1/4 536/1/4
f 536/1/4 534/1/4 537/1/4
f 535/1/4 536/1/4 539/1/4
f 539/1/4 536/1/4 540/1/4
f 537/1/4 538/1/4 541/1/4
f 541/1/4 538/1/4 542/1/4
f 543/1/4 544/1/4 547/1/4
f 547/1/4 544/1/4 548/1/4
f 545/1/4 546/1/4 551/1/4
f 549/1/4 550/1/4 552/1/4
f 545/1/4 551/1/4 553/1/4
f 551/1/4 552/1/4 553/1/4
f 553/1/4 552/1/4 554/1/4
f 554/1/4 552/1/4 555/1/4
f 552/1/4 550/1/4 556/1/4
f 555/1/4 552/1/4 556/1/4
f 554/1/4 555/1/4 558/1/4
f 558/1/4 555/1/4 559/1/4
f 557/1/4 558/1/4 561/1/4
f 559/1/4 560/1/4 561/1/4
f 558/1/4 559/1/4 561/1/4
f 561/1/4 560/1/4 562/1/4
f 568/1/5 564/1/5 563/1/5
f 569/1/5 564/1/5 568/1/5
f 570/1/5 564/1/5 569/1/5
f 572/1/5 566/1/5 565/1/5
f 573/1/5 566/1/5 572/1/5
f 575/1/5 568/1/5 567/1/5
f 575/1/5 569/1/5 568/1/5
f 576/1/5 569/1/5 575/1/5
f 577/1/5 569/1/5 576/1/5
f 580/1/5 572/1/5 571/1/5
f 581/1/5 572/1/5 580/1/5
f 583/1/5 576/1/5 575/1/5
f 583/1/5 575/1/5 574/1/5
f 584/1/5 576/1/5 583/1/5
f 585/1/5 576/1/5 584/1/5
f 587/1/5 579/1/5 578/1/5
f 588/1/5 579/1/5 587/1/5
f 589/1/5 582/1/5 581/1/5
f 590/1/5 582/1/5 589/1/5
f 591/1/5 586/1/5 585/1/5
f 591/1/5 585/1/5 584/1/5
f 592/1/5 586/1/5 591/1/5
f 593/1/5 586/1/5 592/1/5
f 595/1/5 594/1/5 593/1/5
f 595/1/5 593/1/5 592/1/5
f 596/1/5 594/1/5 595/1/5
f 602/1/5 598/1/5 597/1/5
f 603/1/5 598/1/5 602/1/5
f 608/1/5 600/1/5 599/1/5
f 609/1/5 600/1/5 608/1/5
f 611/1/5 602/1/5 601/1/5
f 612/1/5 602/1/5 611/1/5
f 614/1/5 605/1/5 604/1/5
f 615/1/5 605/1/5 614/1/5
f 617/1/5 607/1/5 606/1/5
f 617/1/5 610/1/5 609/1/5
f 617/1/5 609/1/5 608/1/5
f 617/1/5 608/1/5 607/1/5
f 618/1/5 610/1/5 617/1/5
f 619/1/5 610/1/5 618/1/5
f 620/1/5 610/1/5 619/1/5
f 625/1/5 613/1/5 612/1/5
f 626/2/5 614/2/5 613/2/5
f 626/1/5 613/1/5 625/1/5
f 627/2/5 614/2/5 626/2/5
f 629/1/5 617/1/5 616/1/5
f 629/1/5 618/1/5 617/1/5
f 630/1/5 618/1/5 629/1/5
f 631/1/5 618/1/5 630/1/5
f 632/1/5 620/1/5 619/1/5
f 633/5/5 621/5/5 620/5/5
f 633/1/5 620/1/5 632/1/5
f 634/4/5 622/4/5 621/4/5
f 634/5/5 621/5/5 633/5/5
f 635/3/5 623/3/5 622/3/5
f 635/4/5 622/4/5 634/4/5
f 636/3/5 623/3/5 635/3/5
f 637/1/5 625/1/5 624/1/5
f 638/1/5 625/1/5 637/1/5
f 640/1/5 628/1/5 627/1/5
f 641/1/5 628/1/5 640/1/5
f 642/1/5 631/1/5 630/1/5
f 642/1/5 633/1/5 632/1/5
f 642/1/5 632/1/5 631/1/5
f 643/1/5 633/1/5 642/1/5
f 644/1/5 633/1/5 643/1/5
f 645/1/5 633/1/5 644/1/5
f 646/1/5 633/1/5 645/1/5
f 647/1/5 639/1/5 638/1/5
f 648/1/5 639/1/5 647/1/5
f 649/1/5 645/1/5 644/1/5
f 650/1/5 645/1/5 649/1/5
f 657/1/5 652/1/5 651/1/5
f 658/1/5 652/1/5 657/1/5
f 660/1/5 654/1/5 653/1/5
f 661/1/5 654/1/5 660/1/5
f 662/1/5 656/1/5 655/1/5
f 663/1/5 656/1/5 662/1/5
f 664/3/5 660/3/5 659/3/5
f 665/3/5 660/3/5 664/3/5
f 670/3/5 667/3/5 666/3/5
f 671/3/5 667/3/5 670/3/5
f 675/1/5 669/1/5 668/1/5
f 676/1/5 669/1/5 675/1/5
f 677/1/5 672/1/5 671/1/5
f 678/1/5 672/1/5 677/1/5
f 679/1/5 674/1/5 673/1/5
f 680/1/5 674/1/5 679/1/5
f 683/1/5 682/1/5 681/1/5
f 684/1/5 682/1/5 683/1/5
f 687/1/5 686/1/5 685/1/5
f 688/1/5 686/1/5 687/1/5
f 691/1/5 690/1/5 689/1/5
f 692/1/5 690/1/5 691/1/5
f 695/1/5 694/1/5 693/1/5
f 696/1/5 694/1/5 695/1/5
f 697/1/6 698/1/6 699/1/6
f 699/1/6 698/1/6 700/1/6
f 701/1/6 702/1/6 703/1/6
f 703/1/6 702/1/6 704/1/6
f 705/1/6 706/1/6 707/1/6
f 707/1/6 706/1/6 708/1/6
f 709/3/6 710/3/6 711/3/6
f 711/3/6 710/3/6 712/3/6
f 713/1/6 714/1/6 715/1/6
f 715/1/6 714/1/6 716/1/6
f 717/1/6 718/1/6 723/1/6
f 723/1/6 718/1/6 724/1/6
f 719/1/6 720/1/6 726/1/6
f 726/1/6 720/1/6 727/1/6
f 721/1/6 722/1/6 728/1/6
f 728/1/6 722/1/6 729/1/6
f 725/3/6 726/3/6 730/3/6
f 730/3/6 726/3/6 731/3/6
f 732/3/6 733/3/6 736/3/6
f 736/3/6 733/3/6 737/3/6
f 734/3/6 735/3/6 740/3/6
f 740/3/6 735/3/6 741/3/6
f 738/1/6 739/1/6 745/1/6
f 745/1/6 739/1/6 746/1/6
f 741/1/6 742/1/6 747/1/6
f 747/1/6 742/1/6 748/1/6
f 743/1/6 744/1/6 749/1/6
f 749/1/6 744/1/6 750/1/6
f 751/1/6 752/1/6 756/1/6
f 756/1/6 752/1/6 757/1/6
f 753/1/6 754/1/6 762/1/6
f 762/1/6 754/1/6 763/1/6
f 755/1/6 756/1/6 765/1/6
f 765/1/6 756/1/6 766/1/6
f 758/1/6 759/1/6 768/1/6
f 768/1/6 759/1/6 769/1/6
f 760/1/6 761/1/6 771/1/6
f 763/1/6 764/1/6 771/1/6
f 762/1/6 763/1/6 771/1/6
f 761/1/6 762/1/6 771/1/6
f 771/1/6 764/1/6 772/1/6
f 772/1/6 764/1/6 773/1/6
f 773/1/6 764/1/6 774/1/6
f 766/1/6 767/1/6 777/1/6
f 767/2/6 768/2/6 778/2/6
f 777/1/6 767/1/6 778/1/6
f 778/2/6 768/2/6 779/2/6
f 771/1/6 772/1/6 781/1/6
f 770/1/6 771/1/6 781/1/6
f 781/1/6 772/1/6 782/1/6
f 782/1/6 772/1/6 783/1/6
f 773/1/6 774/1/6 784/1/6
f 774/3/6 775/3/6 785/3/6
f 784/1/6 774/1/6 785/1/6
f 785/3/6 775/3/6 786/3/6
f 776/1/6 777/1/6 787/1/6
f 787/1/6 777/1/6 788/1/6
f 779/1/6 780/1/6 790/1/6
f 790/1/6 780/1/6 791/1/6
f 783/1/6 784/1/6 792/1/6
f 782/1/6 783/1/6 792/1/6
f 784/1/6 785/1/6 792/1/6
f 792/1/6 785/1/6 793/1/6
f 793/1/6 785/1/6 794/1/6
f 794/1/6 785/1/6 795/1/6
f 795/1/6 785/1/6 796/1/6
f 788/1/6 789/1/6 797/1/6
f 797/1/6 789/1/6 798/1/6
f 794/1/6 795/1/6 799/1/6
f 799/1/6 795/1/6 800/1/6
f 801/1/6 802/1/6 806/1/6
f 806/1/6 802/1/6 807/1/6
f 807/1/6 802/1/6 808/1/6
f 803/1/6 804/1/6 810/1/6
f 810/1/6 804/1/6 811/1/6
f 805/1/6 806/1/6 813/1/6
f 806/1/6 807/1/6 813/1/6
f 813/1/6 807/1/6 814/1/6
f 814/1/6 807/1/6 815/1/6
f 809/1/6 810/1/6 818/1/6
f 818/1/6 810/1/6 819/1/6
f 813/1/6 814/1/6 821/1/6
f 812/1/6 813/1/6 821/1/6
f 821/1/6 814/1/6 822/1/6
f 822/1/6 814/1/6 823/1/6
f 816/1/6 817/1/6 825/1/6
f 825/1/6 817/1/6 826/1/6
f 819/1/6 820/1/6 827/1/6
f 827/1/6 820/1/6 828/1/6
f 823/1/6 824/1/6 829/1/6
f 822/1/6 823/1/6 829/1/6
f 829/1/6 824/1/6 830/1/6
f 830/1/6 824/1/6 831/1/6
f 831/1/6 832/1/6 833/1/6
f 830/1/6 831/1/6 833/1/6
f 833/1/6 832/1/6 834/1/6
